<svg xmlns="http://www.w3.org/2000/svg" xmlns:xlink="http://www.w3.org/1999/xlink" width="1080" zoomAndPan="magnify" viewBox="0 0 810 809.999993" height="1080" preserveAspectRatio="xMidYMid meet" version="1.0"><defs><clipPath id="8137eabe8a"><path d="M 292 69.261719 L 517 69.261719 L 517 740.511719 L 292 740.511719 Z M 292 69.261719 " clip-rule="nonzero"/></clipPath><clipPath id="56b9fd506c"><path d="M 516 88 L 740.511719 88 L 740.511719 722 L 516 722 Z M 516 88 " clip-rule="nonzero"/></clipPath><clipPath id="98cea2aa25"><path d="M 69.261719 88 L 293 88 L 293 722 L 69.261719 722 Z M 69.261719 88 " clip-rule="nonzero"/></clipPath></defs><g clip-path="url(#8137eabe8a)"><path fill="#ededed" d="M 516.792969 88.355469 L 516.792969 721.417969 C 481.816406 733.808594 444.175781 740.511719 404.886719 740.511719 C 365.59375 740.511719 327.957031 733.808594 292.980469 721.417969 L 292.980469 88.355469 C 328.046875 75.960938 365.6875 69.261719 404.886719 69.261719 C 444.085938 69.261719 481.816406 75.960938 516.792969 88.355469 Z M 516.792969 88.355469 " fill-opacity="1" fill-rule="nonzero"/></g><g clip-path="url(#56b9fd506c)"><path fill="#f4263f" d="M 740.511719 404.886719 C 740.511719 427.835938 738.214844 450.328125 733.808594 471.992188 C 730.6875 487.324219 726.558594 502.285156 721.417969 516.699219 C 687.726562 612.082031 612.171875 687.632812 516.792969 721.324219 L 516.792969 88.355469 C 612.171875 122.046875 687.726562 197.691406 721.417969 292.980469 C 726.558594 307.484375 730.6875 322.449219 733.808594 337.6875 C 738.214844 359.445312 740.511719 381.9375 740.511719 404.886719 Z M 740.511719 404.886719 " fill-opacity="1" fill-rule="nonzero"/></g><g clip-path="url(#98cea2aa25)"><path fill="#001aa0" d="M 292.980469 88.355469 L 292.980469 721.417969 C 197.691406 687.726562 122.046875 612.171875 88.355469 516.792969 C 83.214844 502.285156 79.082031 487.324219 75.960938 472.085938 C 71.554688 450.328125 69.261719 427.929688 69.261719 404.886719 C 69.261719 381.9375 71.554688 359.445312 75.960938 337.777344 C 79.082031 322.449219 83.214844 307.484375 88.355469 293.070312 C 122.046875 197.691406 197.691406 122.046875 292.980469 88.355469 Z M 292.980469 88.355469 " fill-opacity="1" fill-rule="nonzero"/></g></svg>