<svg xmlns="http://www.w3.org/2000/svg" xmlns:xlink="http://www.w3.org/1999/xlink" width="1748" zoomAndPan="magnify" viewBox="0 0 1311 809.999993" height="1080" preserveAspectRatio="xMidYMid meet" version="1.0"><defs><g/></defs><g fill="#000000" fill-opacity="1"><g transform="translate(41.164048, 449.476061)"><g><path d="M 37.28125 -17.359375 L 76.59375 -17.359375 C 90.207031 -17.359375 100.859375 -22.582031 108.546875 -33.03125 C 116.242188 -43.488281 120.09375 -57.769531 120.09375 -75.875 C 120.09375 -93.78125 116.210938 -107.703125 108.453125 -117.640625 C 100.691406 -127.578125 89.492188 -132.613281 74.859375 -132.75 L 37.28125 -132.75 Z M 16.953125 -150.109375 L 77.8125 -150.109375 C 97.488281 -150.109375 112.890625 -143.351562 124.015625 -129.84375 C 135.148438 -116.332031 140.71875 -98.785156 140.71875 -77.203125 C 140.71875 -54.054688 135.148438 -35.398438 124.015625 -21.234375 C 112.890625 -7.078125 97.21875 0 77 0 L 16.953125 0 Z M 16.953125 -150.109375 "/></g></g><g transform="translate(191.788383, 449.476061)"><g><path d="M 127.75 0 L 16.953125 0 L 16.953125 -150.109375 L 126.328125 -150.109375 L 126.328125 -132.140625 L 37.28125 -132.140625 L 37.28125 -86.1875 L 119.375 -86.1875 L 119.375 -68.21875 L 37.28125 -68.21875 L 37.28125 -17.96875 L 127.75 -17.96875 Z M 127.75 0 "/></g></g><g transform="translate(327.707699, 449.476061)"><g><path d="M 37.28125 -81.796875 L 84.25 -81.796875 C 95.144531 -81.796875 102.957031 -84.023438 107.6875 -88.484375 C 112.414062 -92.941406 114.78125 -99.359375 114.78125 -107.734375 C 114.78125 -115.359375 112.738281 -121.429688 108.65625 -125.953125 C 104.570312 -130.484375 97.5625 -132.75 87.625 -132.75 L 37.28125 -132.75 Z M 37.28125 0 L 16.953125 0 L 16.953125 -150.109375 L 86.390625 -150.109375 C 102.523438 -150.109375 114.742188 -146.671875 123.046875 -139.796875 C 131.359375 -132.921875 135.515625 -122.914062 135.515625 -109.78125 C 135.515625 -101.132812 133.84375 -93.914062 130.5 -88.125 C 127.164062 -82.34375 121.925781 -77.578125 114.78125 -73.828125 C 120.90625 -71.585938 125.328125 -68.441406 128.046875 -64.390625 C 130.773438 -60.335938 132.34375 -54.054688 132.75 -45.546875 L 134.078125 -17.5625 C 134.210938 -12.9375 134.941406 -9.6875 136.265625 -7.8125 C 137.597656 -5.9375 139.457031 -4.457031 141.84375 -3.375 L 141.84375 0 L 116.71875 0 C 115.425781 -3.738281 114.503906 -9.421875 113.953125 -17.046875 C 113.410156 -24.671875 113.140625 -31.550781 113.140625 -37.6875 C 113.140625 -40.75 112.867188 -43.878906 112.328125 -47.078125 C 111.785156 -50.273438 110.59375 -53.164062 108.75 -55.75 C 106.914062 -58.34375 104.226562 -60.4375 100.6875 -62.03125 C 97.144531 -63.632812 92.378906 -64.4375 86.390625 -64.4375 L 37.28125 -64.4375 Z M 37.28125 0 "/></g></g><g transform="translate(477.0045, 449.476061)"><g><path d="M 141.125 0 L 141.125 -88.640625 C 141.125 -89.796875 141.191406 -95.460938 141.328125 -105.640625 C 141.460938 -115.816406 141.53125 -122.644531 141.53125 -126.125 L 140.921875 -126.125 L 98.953125 0 L 78.84375 0 L 36.765625 -125.90625 L 36.15625 -125.90625 C 36.15625 -120.875 36.222656 -113.691406 36.359375 -104.359375 C 36.492188 -95.035156 36.5625 -89.796875 36.5625 -88.640625 L 36.5625 0 L 16.953125 0 L 16.953125 -150.109375 L 45.953125 -150.109375 L 88.640625 -23.1875 L 89.25 -23.1875 L 131.734375 -150.109375 L 160.84375 -150.109375 L 160.84375 0 Z M 141.125 0 "/></g></g><g transform="translate(654.792276, 449.476061)"><g><path d="M 92.015625 -61.6875 L 69.84375 -127.75 L 69.4375 -127.75 L 45.34375 -61.6875 Z M 39.109375 -43.703125 L 23.390625 0 L 2.546875 0 L 59.03125 -150.109375 L 82 -150.109375 L 136.328125 0 L 114.171875 0 L 99.359375 -43.703125 Z M 39.109375 -43.703125 "/></g></g><g transform="translate(794.28573, 449.476061)"><g><path d="M 37.28125 0 L 16.953125 0 L 16.953125 -150.109375 L 120.90625 -150.109375 L 120.90625 -132.140625 L 37.28125 -132.140625 L 37.28125 -86.1875 L 110.796875 -86.1875 L 110.796875 -68.21875 L 37.28125 -68.21875 Z M 37.28125 0 "/></g></g><g transform="translate(919.2784, 449.476061)"><g><path d="M 37.28125 0 L 16.953125 0 L 16.953125 -150.109375 L 37.28125 -150.109375 Z M 37.28125 0 "/></g></g></g><g fill="#000000" fill-opacity="1"><g transform="translate(973.196806, 449.476061)"><g><path d="M 36.96875 -17.96875 L 113.359375 -17.96875 L 113.359375 0 L 16.953125 0 L 16.953125 -150.109375 L 36.96875 -150.109375 Z M 36.96875 -17.96875 "/></g></g></g><g fill="#000000" fill-opacity="1"><g transform="translate(1089.509452, 449.476061)"><g><path d="M 36.96875 -17.96875 L 113.359375 -17.96875 L 113.359375 0 L 16.953125 0 L 16.953125 -150.109375 L 36.96875 -150.109375 Z M 36.96875 -17.96875 "/></g></g></g><g fill="#000000" fill-opacity="1"><g transform="translate(1194.776202, 321.260593)"><g><path d="M 32.9375 -28.671875 C 35.238281 -28.671875 36.976562 -29.050781 38.15625 -29.8125 C 39.34375 -30.570312 39.9375 -31.941406 39.9375 -33.921875 C 39.9375 -35.347656 39.40625 -36.492188 38.34375 -37.359375 C 37.28125 -38.234375 35.457031 -38.671875 32.875 -38.671875 L 26.203125 -38.671875 L 26.203125 -28.671875 Z M 26.203125 -10.46875 L 21.3125 -10.46875 L 21.3125 -42.828125 L 33.921875 -42.828125 C 41.335938 -42.828125 45.046875 -39.757812 45.046875 -33.625 C 45.046875 -28.476562 42.328125 -25.507812 36.890625 -24.71875 L 45.875 -10.46875 L 40.375 -10.46875 L 31.859375 -24.5 L 26.203125 -24.5 Z M 9.28125 -26.703125 C 9.28125 -20.234375 11.453125 -14.707031 15.796875 -10.125 C 20.148438 -5.550781 25.597656 -3.265625 32.140625 -3.265625 C 38.660156 -3.265625 44.070312 -5.539062 48.375 -10.09375 C 52.675781 -14.644531 54.828125 -20.179688 54.828125 -26.703125 C 54.828125 -33.253906 52.675781 -38.773438 48.375 -43.265625 C 44.070312 -47.765625 38.660156 -50.015625 32.140625 -50.015625 C 25.597656 -50.015625 20.148438 -47.765625 15.796875 -43.265625 C 11.453125 -38.773438 9.28125 -33.253906 9.28125 -26.703125 Z M 32.140625 1.40625 C 24.316406 1.40625 17.609375 -1.316406 12.015625 -6.765625 C 6.421875 -12.210938 3.625 -18.859375 3.625 -26.703125 C 3.625 -34.578125 6.40625 -41.207031 11.96875 -46.59375 C 17.539062 -51.988281 24.265625 -54.6875 32.140625 -54.6875 C 39.992188 -54.6875 46.679688 -51.988281 52.203125 -46.59375 C 57.722656 -41.207031 60.484375 -34.578125 60.484375 -26.703125 C 60.484375 -18.804688 57.722656 -12.144531 52.203125 -6.71875 C 46.679688 -1.300781 39.992188 1.40625 32.140625 1.40625 Z M 32.140625 1.40625 "/></g></g></g></svg>