<svg xmlns="http://www.w3.org/2000/svg" xmlns:xlink="http://www.w3.org/1999/xlink" width="1748" zoomAndPan="magnify" viewBox="0 0 1311 809.999993" height="1080" preserveAspectRatio="xMidYMid meet" version="1.0"><defs><g/></defs><g fill="#28285a" fill-opacity="1"><g transform="translate(124.049975, 468.352357)"><g><path d="M 82.796875 -29.34375 L 124.09375 -123.71875 L 143.15625 -123.71875 L 150.078125 0 L 131.015625 0 L 125.96875 -106.34375 L 125.21875 -106.34375 L 78.125 0 L 75.5 0 L 29.34375 -102.046875 L 28.59375 -102.046875 L 23.546875 0 L 15.328125 0 L 22.234375 -123.71875 L 39.625 -123.71875 Z M 82.796875 -29.34375 "/></g></g></g><g fill="#28285a" fill-opacity="1"><g transform="translate(290.185671, 468.352357)"><g><path d="M 1.875 0 L 57.375 -126.71875 L 60.171875 -126.71875 L 115.6875 0 L 95.3125 0 L 81.296875 -33.640625 L 25.796875 -33.640625 L 11.96875 0 Z M 28.59375 -40.734375 L 78.3125 -40.734375 L 53.640625 -101.296875 Z M 28.59375 -40.734375 "/></g></g></g><g fill="#28285a" fill-opacity="1"><g transform="translate(407.732762, 468.352357)"><g><path d="M 110.828125 2.0625 L 107.65625 2.0625 L 25.796875 -100.359375 L 25.046875 -100.359375 L 25.046875 0 L 16.8125 0 L 16.8125 -123.71875 L 30.65625 -123.71875 L 101.859375 -33.828125 L 102.609375 -33.828125 L 102.609375 -123.71875 L 110.828125 -123.71875 Z M 110.828125 2.0625 "/></g></g></g><g fill="#28285a" fill-opacity="1"><g transform="translate(535.371333, 468.352357)"><g><path d="M 34.015625 -123.71875 L 34.015625 0 L 16.8125 0 L 16.8125 -123.71875 Z M 34.015625 -123.71875 "/></g></g></g><g fill="#28285a" fill-opacity="1"><g transform="translate(586.202532, 468.352357)"><g><path d="M 34.953125 -68.40625 L 74.5625 -68.40625 L 74.5625 -61.296875 L 34.953125 -61.296875 L 34.953125 0 L 16.8125 0 L 16.8125 -123.71875 L 89.890625 -123.71875 L 89.890625 -111.203125 L 55.3125 -117 C 49.082031 -117 42.296875 -115.9375 34.953125 -113.8125 Z M 34.953125 -68.40625 "/></g></g></g><g fill="#28285a" fill-opacity="1"><g transform="translate(676.09148, 468.352357)"><g><path d="M 34.015625 -123.71875 L 34.015625 0 L 16.8125 0 L 16.8125 -123.71875 Z M 34.015625 -123.71875 "/></g></g></g><g fill="#28285a" fill-opacity="1"><g transform="translate(726.922679, 468.352357)"><g><path d="M 73.828125 2.25 C 54.515625 2.25 38.253906 -2.984375 25.046875 -13.453125 C 11.835938 -23.921875 5.234375 -38.9375 5.234375 -58.5 C 5.234375 -69.957031 7.410156 -80.171875 11.765625 -89.140625 C 16.128906 -98.117188 21.863281 -105.160156 28.96875 -110.265625 C 43.289062 -120.734375 59.363281 -125.96875 77.1875 -125.96875 C 87.53125 -125.96875 98.304688 -124.097656 109.515625 -120.359375 L 107.65625 -107.65625 C 101.789062 -110.144531 97.238281 -112.007812 94 -113.25 C 84.65625 -116.613281 75.25 -118.296875 65.78125 -118.296875 C 52.695312 -115.304688 42.632812 -108.828125 35.59375 -98.859375 C 28.5625 -88.890625 25.046875 -76.429688 25.046875 -61.484375 C 25.046875 -43.171875 29.84375 -29.0625 39.4375 -19.15625 C 49.03125 -9.25 61.675781 -4.296875 77.375 -4.296875 C 93.070312 -4.296875 104.785156 -7.660156 112.515625 -14.390625 L 112.515625 -4.109375 C 101.796875 0.128906 88.898438 2.25 73.828125 2.25 Z M 73.828125 2.25 "/></g></g></g><g fill="#28285a" fill-opacity="1"><g transform="translate(845.030395, 468.352357)"><g><path d="M 1.875 0 L 57.375 -126.71875 L 60.171875 -126.71875 L 115.6875 0 L 95.3125 0 L 81.296875 -33.640625 L 25.796875 -33.640625 L 11.96875 0 Z M 28.59375 -40.734375 L 78.3125 -40.734375 L 53.640625 -101.296875 Z M 28.59375 -40.734375 "/></g></g></g><g fill="#28285a" fill-opacity="1"><g transform="translate(962.577486, 468.352357)"><g><path d="M 35.140625 -59.0625 L 35.140625 0 L 16.8125 0 L 16.8125 -123.71875 L 57.1875 -123.71875 C 69.769531 -123.71875 80.078125 -120.914062 88.109375 -115.3125 C 96.148438 -109.707031 100.171875 -102.320312 100.171875 -93.15625 C 100.171875 -84 96.960938 -76.773438 90.546875 -71.484375 C 84.128906 -66.191406 75.441406 -62.546875 64.484375 -60.546875 L 114.5625 0 L 92.890625 2.609375 L 49.53125 -59.0625 Z M 35.140625 -64.671875 L 47.09375 -64.671875 C 69.519531 -64.671875 80.734375 -73.515625 80.734375 -91.203125 C 80.734375 -94.191406 79.988281 -97.554688 78.5 -101.296875 C 75.632812 -109.140625 69.523438 -114.3125 60.171875 -116.8125 C 51.703125 -116.8125 43.359375 -115.75 35.140625 -113.625 Z M 35.140625 -64.671875 "/></g></g></g><g fill="#28285a" fill-opacity="1"><g transform="translate(1081.806499, 468.352357)"><g><path d="M 16.8125 0 L 16.8125 -123.71875 L 91.765625 -123.71875 L 89.890625 -111.203125 L 55.125 -117 C 49.019531 -117 42.296875 -115.9375 34.953125 -113.8125 L 34.953125 -68.40625 L 76.4375 -68.40625 L 76.4375 -61.296875 L 34.953125 -61.296875 L 34.953125 -6.734375 L 92.890625 -12.515625 L 91.015625 0 Z M 16.8125 0 "/></g></g></g></svg>