<svg xmlns="http://www.w3.org/2000/svg" xmlns:xlink="http://www.w3.org/1999/xlink" width="1748" zoomAndPan="magnify" viewBox="0 0 1311 809.999993" height="1080" preserveAspectRatio="xMidYMid meet" version="1.0"><defs><g/></defs><g fill="#000000" fill-opacity="1"><g transform="translate(41.164048, 449.476061)"><g><path d="M 37.28125 -17.359375 L 76.59375 -17.359375 C 90.207031 -17.359375 100.859375 -22.582031 108.546875 -33.03125 C 116.242188 -43.488281 120.09375 -57.769531 120.09375 -75.875 C 120.09375 -93.78125 116.210938 -107.703125 108.453125 -117.640625 C 100.691406 -127.578125 89.492188 -132.613281 74.859375 -132.75 L 37.28125 -132.75 Z M 16.953125 -150.109375 L 77.8125 -150.109375 C 97.488281 -150.109375 112.890625 -143.351562 124.015625 -129.84375 C 135.148438 -116.332031 140.71875 -98.785156 140.71875 -77.203125 C 140.71875 -54.054688 135.148438 -35.398438 124.015625 -21.234375 C 112.890625 -7.078125 97.21875 0 77 0 L 16.953125 0 Z M 16.953125 -150.109375 "/></g></g><g transform="translate(191.788383, 449.476061)"><g><path d="M 127.75 0 L 16.953125 0 L 16.953125 -150.109375 L 126.328125 -150.109375 L 126.328125 -132.140625 L 37.28125 -132.140625 L 37.28125 -86.1875 L 119.375 -86.1875 L 119.375 -68.21875 L 37.28125 -68.21875 L 37.28125 -17.96875 L 127.75 -17.96875 Z M 127.75 0 "/></g></g><g transform="translate(327.707699, 449.476061)"><g><path d="M 37.28125 -81.796875 L 84.25 -81.796875 C 95.144531 -81.796875 102.957031 -84.023438 107.6875 -88.484375 C 112.414062 -92.941406 114.78125 -99.359375 114.78125 -107.734375 C 114.78125 -115.359375 112.738281 -121.429688 108.65625 -125.953125 C 104.570312 -130.484375 97.5625 -132.75 87.625 -132.75 L 37.28125 -132.75 Z M 37.28125 0 L 16.953125 0 L 16.953125 -150.109375 L 86.390625 -150.109375 C 102.523438 -150.109375 114.742188 -146.671875 123.046875 -139.796875 C 131.359375 -132.921875 135.515625 -122.914062 135.515625 -109.78125 C 135.515625 -101.132812 133.84375 -93.914062 130.5 -88.125 C 127.164062 -82.34375 121.925781 -77.578125 114.78125 -73.828125 C 120.90625 -71.585938 125.328125 -68.441406 128.046875 -64.390625 C 130.773438 -60.335938 132.34375 -54.054688 132.75 -45.546875 L 134.078125 -17.5625 C 134.210938 -12.9375 134.941406 -9.6875 136.265625 -7.8125 C 137.597656 -5.9375 139.457031 -4.457031 141.84375 -3.375 L 141.84375 0 L 116.71875 0 C 115.425781 -3.738281 114.503906 -9.421875 113.953125 -17.046875 C 113.410156 -24.671875 113.140625 -31.550781 113.140625 -37.6875 C 113.140625 -40.75 112.867188 -43.878906 112.328125 -47.078125 C 111.785156 -50.273438 110.59375 -53.164062 108.75 -55.75 C 106.914062 -58.34375 104.226562 -60.4375 100.6875 -62.03125 C 97.144531 -63.632812 92.378906 -64.4375 86.390625 -64.4375 L 37.28125 -64.4375 Z M 37.28125 0 "/></g></g><g transform="translate(477.0045, 449.476061)"><g><path d="M 141.125 0 L 141.125 -88.640625 C 141.125 -89.796875 141.191406 -95.460938 141.328125 -105.640625 C 141.460938 -115.816406 141.53125 -122.644531 141.53125 -126.125 L 140.921875 -126.125 L 98.953125 0 L 78.84375 0 L 36.765625 -125.90625 L 36.15625 -125.90625 C 36.15625 -120.875 36.222656 -113.691406 36.359375 -104.359375 C 36.492188 -95.035156 36.5625 -89.796875 36.5625 -88.640625 L 36.5625 0 L 16.953125 0 L 16.953125 -150.109375 L 45.953125 -150.109375 L 88.640625 -23.1875 L 89.25 -23.1875 L 131.734375 -150.109375 L 160.84375 -150.109375 L 160.84375 0 Z M 141.125 0 "/></g></g><g transform="translate(654.792276, 449.476061)"><g><path d="M 92.015625 -61.6875 L 69.84375 -127.75 L 69.4375 -127.75 L 45.34375 -61.6875 Z M 39.109375 -43.703125 L 23.390625 0 L 2.546875 0 L 59.03125 -150.109375 L 82 -150.109375 L 136.328125 0 L 114.171875 0 L 99.359375 -43.703125 Z M 39.109375 -43.703125 "/></g></g><g transform="translate(794.28573, 449.476061)"><g><path d="M 37.28125 0 L 16.953125 0 L 16.953125 -150.109375 L 120.90625 -150.109375 L 120.90625 -132.140625 L 37.28125 -132.140625 L 37.28125 -86.1875 L 110.796875 -86.1875 L 110.796875 -68.21875 L 37.28125 -68.21875 Z M 37.28125 0 "/></g></g><g transform="translate(919.2784, 449.476061)"><g><path d="M 37.28125 0 L 16.953125 0 L 16.953125 -150.109375 L 37.28125 -150.109375 Z M 37.28125 0 "/></g></g></g><g fill="#000000" fill-opacity="1"><g transform="translate(973.196806, 449.476061)"><g><path d="M 36.96875 -17.96875 L 113.359375 -17.96875 L 113.359375 0 L 16.953125 0 L 16.953125 -150.109375 L 36.96875 -150.109375 Z M 36.96875 -17.96875 "/></g></g></g><g fill="#000000" fill-opacity="1"><g transform="translate(1089.509452, 449.476061)"><g><path d="M 36.96875 -17.96875 L 113.359375 -17.96875 L 113.359375 0 L 16.953125 0 L 16.953125 -150.109375 L 36.96875 -150.109375 Z M 36.96875 -17.96875 "/></g></g></g><g fill="#62beb2" fill-opacity="1"><g transform="translate(54.571757, 538.972975)"><g><path d="M 21.359375 -21.296875 L 38.859375 -21.296875 L 38.859375 0 L 35.359375 0 L 34.0625 -5.15625 C 32.363281 -2.976562 30.367188 -1.394531 28.078125 -0.40625 C 25.785156 0.570312 23.398438 1.0625 20.921875 1.0625 C 16.929688 1.0625 13.59375 0.191406 10.90625 -1.546875 C 8.226562 -3.296875 6.144531 -5.707031 4.65625 -8.78125 C 3.175781 -11.851562 2.4375 -15.679688 2.4375 -20.265625 C 2.4375 -25.992188 4.140625 -30.863281 7.546875 -34.875 C 10.953125 -38.882812 15.535156 -40.890625 21.296875 -40.890625 C 25.597656 -40.890625 29.351562 -39.6875 32.5625 -37.28125 C 35.78125 -34.882812 37.65625 -31.707031 38.1875 -27.75 L 32.984375 -27.75 C 32.347656 -30.363281 31.007812 -32.410156 28.96875 -33.890625 C 26.925781 -35.378906 24.28125 -36.125 21.03125 -36.125 C 17.113281 -36.125 13.960938 -34.644531 11.578125 -31.6875 C 9.191406 -28.738281 8 -24.832031 8 -19.96875 C 8 -14.3125 9.179688 -10.160156 11.546875 -7.515625 C 13.910156 -4.867188 17.144531 -3.546875 21.25 -3.546875 C 23.914062 -3.546875 26.175781 -4.070312 28.03125 -5.125 C 29.882812 -6.1875 31.304688 -7.625 32.296875 -9.4375 C 33.296875 -11.257812 33.796875 -13.675781 33.796875 -16.6875 L 21.359375 -16.6875 Z M 21.359375 -21.296875 "/></g></g></g><g fill="#62beb2" fill-opacity="1"><g transform="translate(97.361481, 538.972975)"><g><path d="M 9.8125 -4.765625 L 30.078125 -4.765625 L 30.078125 0 L 4.5 0 L 4.5 -39.84375 L 9.8125 -39.84375 Z M 9.8125 -4.765625 "/></g></g></g><g fill="#62beb2" fill-opacity="1"><g transform="translate(128.227533, 538.972975)"><g><path d="M 35.46875 -19.921875 C 35.46875 -24.578125 34.234375 -28.441406 31.765625 -31.515625 C 29.304688 -34.585938 25.914062 -36.125 21.59375 -36.125 C 17.332031 -36.125 13.953125 -34.585938 11.453125 -31.515625 C 8.960938 -28.441406 7.71875 -24.578125 7.71875 -19.921875 C 7.71875 -15.109375 8.984375 -11.203125 11.515625 -8.203125 C 14.046875 -5.210938 17.40625 -3.71875 21.59375 -3.71875 C 25.695312 -3.71875 29.035156 -5.179688 31.609375 -8.109375 C 34.179688 -11.035156 35.46875 -14.972656 35.46875 -19.921875 Z M 41 -19.921875 C 41 -13.972656 39.28125 -8.988281 35.84375 -4.96875 C 32.414062 -0.945312 27.664062 1.0625 21.59375 1.0625 C 15.488281 1.0625 10.722656 -0.945312 7.296875 -4.96875 C 3.878906 -8.988281 2.171875 -13.972656 2.171875 -19.921875 C 2.171875 -25.878906 3.878906 -30.863281 7.296875 -34.875 C 10.722656 -38.882812 15.488281 -40.890625 21.59375 -40.890625 C 27.84375 -40.890625 32.640625 -38.847656 35.984375 -34.765625 C 39.328125 -30.679688 41 -25.734375 41 -19.921875 Z M 41 -19.921875 "/></g></g></g><g fill="#62beb2" fill-opacity="1"><g transform="translate(171.396646, 538.972975)"><g><path d="M 4.5 -39.84375 L 21.984375 -39.84375 C 25.410156 -39.84375 28.144531 -38.910156 30.1875 -37.046875 C 32.226562 -35.179688 33.25 -32.769531 33.25 -29.8125 C 33.25 -28.019531 32.800781 -26.382812 31.90625 -24.90625 C 31.007812 -23.4375 29.675781 -22.296875 27.90625 -21.484375 C 30.382812 -20.546875 32.207031 -19.300781 33.375 -17.75 C 34.539062 -16.195312 35.125 -14.203125 35.125 -11.765625 C 35.125 -8.328125 33.882812 -5.503906 31.40625 -3.296875 C 28.9375 -1.097656 25.664062 0 21.59375 0 L 4.5 0 Z M 9.8125 -4.609375 L 21.296875 -4.609375 C 24.117188 -4.609375 26.234375 -5.257812 27.640625 -6.5625 C 29.046875 -7.875 29.75 -9.644531 29.75 -11.875 C 29.75 -14.125 28.960938 -15.804688 27.390625 -16.921875 C 25.828125 -18.035156 23.507812 -18.59375 20.4375 -18.59375 L 9.8125 -18.59375 Z M 9.8125 -22.984375 L 19.59375 -22.984375 C 22.445312 -22.984375 24.535156 -23.5 25.859375 -24.53125 C 27.191406 -25.570312 27.859375 -27.195312 27.859375 -29.40625 C 27.859375 -31.300781 27.226562 -32.742188 25.96875 -33.734375 C 24.71875 -34.734375 22.609375 -35.234375 19.640625 -35.234375 L 9.8125 -35.234375 Z M 9.8125 -22.984375 "/></g></g></g><g fill="#62beb2" fill-opacity="1"><g transform="translate(208.685221, 538.972975)"><g><path d="M 24.421875 -16.375 L 18.53125 -33.90625 L 18.421875 -33.90625 L 12.03125 -16.375 Z M 10.375 -11.59375 L 6.203125 0 L 0.671875 0 L 15.65625 -39.84375 L 21.765625 -39.84375 L 36.171875 0 L 30.296875 0 L 26.375 -11.59375 Z M 10.375 -11.59375 "/></g></g></g><g fill="#62beb2" fill-opacity="1"><g transform="translate(245.702794, 538.972975)"><g><path d="M 9.8125 -4.765625 L 30.078125 -4.765625 L 30.078125 0 L 4.5 0 L 4.5 -39.84375 L 9.8125 -39.84375 Z M 9.8125 -4.765625 "/></g></g></g><g fill="#62beb2" fill-opacity="1"><g transform="translate(276.568856, 538.972975)"><g/></g></g><g fill="#62beb2" fill-opacity="1"><g transform="translate(290.118483, 538.972975)"><g><path d="M 35.6875 0 L 29.03125 0 L 18.3125 -16.375 L 7.265625 0 L 0.78125 0 L 15.046875 -20.4375 L 1.65625 -39.84375 L 8.421875 -39.84375 L 18.53125 -24.578125 L 28.640625 -39.84375 L 35.0625 -39.84375 L 21.703125 -20.4375 Z M 35.6875 0 "/></g></g></g><g fill="#62beb2" fill-opacity="1"><g transform="translate(326.810875, 538.972975)"><g><path d="M 14.09375 -35.0625 L 0.671875 -35.0625 L 0.671875 -39.84375 L 33.03125 -39.84375 L 33.03125 -35.0625 L 19.484375 -35.0625 L 19.484375 0 L 14.09375 0 Z M 14.09375 -35.0625 "/></g></g></g><g fill="#62beb2" fill-opacity="1"><g transform="translate(360.522349, 538.972975)"><g><path d="M 9.890625 -21.703125 L 22.359375 -21.703125 C 25.242188 -21.703125 27.3125 -22.289062 28.5625 -23.46875 C 29.820312 -24.65625 30.453125 -26.363281 30.453125 -28.59375 C 30.453125 -30.613281 29.910156 -32.222656 28.828125 -33.421875 C 27.742188 -34.628906 25.882812 -35.234375 23.25 -35.234375 L 9.890625 -35.234375 Z M 9.890625 0 L 4.5 0 L 4.5 -39.84375 L 22.921875 -39.84375 C 27.203125 -39.84375 30.445312 -38.925781 32.65625 -37.09375 C 34.863281 -35.269531 35.96875 -32.613281 35.96875 -29.125 C 35.96875 -26.832031 35.523438 -24.914062 34.640625 -23.375 C 33.753906 -21.84375 32.359375 -20.582031 30.453125 -19.59375 C 32.085938 -19 33.265625 -18.160156 33.984375 -17.078125 C 34.703125 -16.003906 35.117188 -14.34375 35.234375 -12.09375 L 35.578125 -4.65625 C 35.617188 -3.425781 35.8125 -2.5625 36.15625 -2.0625 C 36.507812 -1.570312 37.003906 -1.179688 37.640625 -0.890625 L 37.640625 0 L 30.96875 0 C 30.625 -0.988281 30.378906 -2.492188 30.234375 -4.515625 C 30.097656 -6.546875 30.03125 -8.375 30.03125 -10 C 30.03125 -10.8125 29.957031 -11.640625 29.8125 -12.484375 C 29.664062 -13.335938 29.347656 -14.109375 28.859375 -14.796875 C 28.367188 -15.484375 27.65625 -16.035156 26.71875 -16.453125 C 25.78125 -16.878906 24.515625 -17.09375 22.921875 -17.09375 L 9.890625 -17.09375 Z M 9.890625 0 "/></g></g></g><g fill="#62beb2" fill-opacity="1"><g transform="translate(400.14146, 538.972975)"><g><path d="M 24.421875 -16.375 L 18.53125 -33.90625 L 18.421875 -33.90625 L 12.03125 -16.375 Z M 10.375 -11.59375 L 6.203125 0 L 0.671875 0 L 15.65625 -39.84375 L 21.765625 -39.84375 L 36.171875 0 L 30.296875 0 L 26.375 -11.59375 Z M 10.375 -11.59375 "/></g></g></g><g fill="#dd453e" fill-opacity="1"><g transform="translate(529.474851, 538.972975)"><g><path d="M 29.59375 -39.84375 L 35.640625 -39.84375 L 21.03125 0 L 15.359375 0 L 0.84375 -39.84375 L 6.828125 -39.84375 L 18.21875 -5.875 L 18.3125 -5.875 Z M 29.59375 -39.84375 "/></g></g></g><g fill="#dd453e" fill-opacity="1"><g transform="translate(565.869151, 538.972975)"><g><path d="M 35.46875 -19.921875 C 35.46875 -24.578125 34.234375 -28.441406 31.765625 -31.515625 C 29.304688 -34.585938 25.914062 -36.125 21.59375 -36.125 C 17.332031 -36.125 13.953125 -34.585938 11.453125 -31.515625 C 8.960938 -28.441406 7.71875 -24.578125 7.71875 -19.921875 C 7.71875 -15.109375 8.984375 -11.203125 11.515625 -8.203125 C 14.046875 -5.210938 17.40625 -3.71875 21.59375 -3.71875 C 25.695312 -3.71875 29.035156 -5.179688 31.609375 -8.109375 C 34.179688 -11.035156 35.46875 -14.972656 35.46875 -19.921875 Z M 41 -19.921875 C 41 -13.972656 39.28125 -8.988281 35.84375 -4.96875 C 32.414062 -0.945312 27.664062 1.0625 21.59375 1.0625 C 15.488281 1.0625 10.722656 -0.945312 7.296875 -4.96875 C 3.878906 -8.988281 2.171875 -13.972656 2.171875 -19.921875 C 2.171875 -25.878906 3.878906 -30.863281 7.296875 -34.875 C 10.722656 -38.882812 15.488281 -40.890625 21.59375 -40.890625 C 27.84375 -40.890625 32.640625 -38.847656 35.984375 -34.765625 C 39.328125 -30.679688 41 -25.734375 41 -19.921875 Z M 41 -19.921875 "/></g></g></g><g fill="#dd453e" fill-opacity="1"><g transform="translate(609.038264, 538.972975)"><g><path d="M 9.8125 -4.765625 L 30.078125 -4.765625 L 30.078125 0 L 4.5 0 L 4.5 -39.84375 L 9.8125 -39.84375 Z M 9.8125 -4.765625 "/></g></g></g><g fill="#dd453e" fill-opacity="1"><g transform="translate(639.904316, 538.972975)"><g><path d="M 35.578125 -39.84375 L 35.578125 -13.984375 C 35.578125 -9.578125 34.179688 -5.96875 31.390625 -3.15625 C 28.597656 -0.34375 24.644531 1.0625 19.53125 1.0625 C 14.769531 1.0625 11.03125 -0.234375 8.3125 -2.828125 C 5.59375 -5.421875 4.234375 -8.894531 4.234375 -13.25 L 4.234375 -39.84375 L 9.546875 -39.84375 L 9.546875 -14.765625 C 9.546875 -11.097656 10.460938 -8.335938 12.296875 -6.484375 C 14.128906 -4.640625 16.578125 -3.71875 19.640625 -3.71875 C 22.929688 -3.71875 25.503906 -4.640625 27.359375 -6.484375 C 29.210938 -8.335938 30.140625 -11.0625 30.140625 -14.65625 L 30.140625 -39.84375 Z M 35.578125 -39.84375 "/></g></g></g><g fill="#dd453e" fill-opacity="1"><g transform="translate(679.631824, 538.972975)"><g><path d="M 37.453125 0 L 37.453125 -23.515625 C 37.453125 -23.828125 37.46875 -25.332031 37.5 -28.03125 C 37.539062 -30.738281 37.5625 -32.550781 37.5625 -33.46875 L 37.390625 -33.46875 L 26.265625 0 L 20.921875 0 L 9.75 -33.40625 L 9.59375 -33.40625 C 9.59375 -32.070312 9.609375 -30.164062 9.640625 -27.6875 C 9.679688 -25.21875 9.703125 -23.828125 9.703125 -23.515625 L 9.703125 0 L 4.5 0 L 4.5 -39.84375 L 12.1875 -39.84375 L 23.515625 -6.15625 L 23.6875 -6.15625 L 34.953125 -39.84375 L 42.6875 -39.84375 L 42.6875 0 Z M 37.453125 0 "/></g></g></g><g fill="#dd453e" fill-opacity="1"><g transform="translate(726.811627, 538.972975)"><g><path d="M 33.90625 0 L 4.5 0 L 4.5 -39.84375 L 33.515625 -39.84375 L 33.515625 -35.0625 L 9.890625 -35.0625 L 9.890625 -22.875 L 31.671875 -22.875 L 31.671875 -18.109375 L 9.890625 -18.109375 L 9.890625 -4.765625 L 33.90625 -4.765625 Z M 33.90625 0 "/></g></g></g><g fill="#dd453e" fill-opacity="1"><g transform="translate(762.880726, 538.972975)"><g/></g></g><g fill="#dd453e" fill-opacity="1"><g transform="translate(776.430354, 538.972975)"><g><path d="M 35.578125 -39.84375 L 35.578125 -13.984375 C 35.578125 -9.578125 34.179688 -5.96875 31.390625 -3.15625 C 28.597656 -0.34375 24.644531 1.0625 19.53125 1.0625 C 14.769531 1.0625 11.03125 -0.234375 8.3125 -2.828125 C 5.59375 -5.421875 4.234375 -8.894531 4.234375 -13.25 L 4.234375 -39.84375 L 9.546875 -39.84375 L 9.546875 -14.765625 C 9.546875 -11.097656 10.460938 -8.335938 12.296875 -6.484375 C 14.128906 -4.640625 16.578125 -3.71875 19.640625 -3.71875 C 22.929688 -3.71875 25.503906 -4.640625 27.359375 -6.484375 C 29.210938 -8.335938 30.140625 -11.0625 30.140625 -14.65625 L 30.140625 -39.84375 Z M 35.578125 -39.84375 "/></g></g></g><g fill="#dd453e" fill-opacity="1"><g transform="translate(816.157862, 538.972975)"><g><path d="M 9.8125 -4.765625 L 30.078125 -4.765625 L 30.078125 0 L 4.5 0 L 4.5 -39.84375 L 9.8125 -39.84375 Z M 9.8125 -4.765625 "/></g></g></g><g fill="#dd453e" fill-opacity="1"><g transform="translate(847.023903, 538.972975)"><g><path d="M 14.09375 -35.0625 L 0.671875 -35.0625 L 0.671875 -39.84375 L 33.03125 -39.84375 L 33.03125 -35.0625 L 19.484375 -35.0625 L 19.484375 0 L 14.09375 0 Z M 14.09375 -35.0625 "/></g></g></g><g fill="#dd453e" fill-opacity="1"><g transform="translate(880.735377, 538.972975)"><g><path d="M 9.890625 -21.703125 L 22.359375 -21.703125 C 25.242188 -21.703125 27.3125 -22.289062 28.5625 -23.46875 C 29.820312 -24.65625 30.453125 -26.363281 30.453125 -28.59375 C 30.453125 -30.613281 29.910156 -32.222656 28.828125 -33.421875 C 27.742188 -34.628906 25.882812 -35.234375 23.25 -35.234375 L 9.890625 -35.234375 Z M 9.890625 0 L 4.5 0 L 4.5 -39.84375 L 22.921875 -39.84375 C 27.203125 -39.84375 30.445312 -38.925781 32.65625 -37.09375 C 34.863281 -35.269531 35.96875 -32.613281 35.96875 -29.125 C 35.96875 -26.832031 35.523438 -24.914062 34.640625 -23.375 C 33.753906 -21.84375 32.359375 -20.582031 30.453125 -19.59375 C 32.085938 -19 33.265625 -18.160156 33.984375 -17.078125 C 34.703125 -16.003906 35.117188 -14.34375 35.234375 -12.09375 L 35.578125 -4.65625 C 35.617188 -3.425781 35.8125 -2.5625 36.15625 -2.0625 C 36.507812 -1.570312 37.003906 -1.179688 37.640625 -0.890625 L 37.640625 0 L 30.96875 0 C 30.625 -0.988281 30.378906 -2.492188 30.234375 -4.515625 C 30.097656 -6.546875 30.03125 -8.375 30.03125 -10 C 30.03125 -10.8125 29.957031 -11.640625 29.8125 -12.484375 C 29.664062 -13.335938 29.347656 -14.109375 28.859375 -14.796875 C 28.367188 -15.484375 27.65625 -16.035156 26.71875 -16.453125 C 25.78125 -16.878906 24.515625 -17.09375 22.921875 -17.09375 L 9.890625 -17.09375 Z M 9.890625 0 "/></g></g></g><g fill="#dd453e" fill-opacity="1"><g transform="translate(920.354508, 538.972975)"><g><path d="M 24.421875 -16.375 L 18.53125 -33.90625 L 18.421875 -33.90625 L 12.03125 -16.375 Z M 10.375 -11.59375 L 6.203125 0 L 0.671875 0 L 15.65625 -39.84375 L 21.765625 -39.84375 L 36.171875 0 L 30.296875 0 L 26.375 -11.59375 Z M 10.375 -11.59375 "/></g></g></g><g fill="#ae78b1" fill-opacity="1"><g transform="translate(1067.8546, 540.303749)"><g><path d="M 10.25 -4.984375 L 31.4375 -4.984375 L 31.4375 0 L 4.703125 0 L 4.703125 -41.625 L 10.25 -41.625 Z M 10.25 -4.984375 "/></g></g></g><g fill="#ae78b1" fill-opacity="1"><g transform="translate(1100.10841, 540.303749)"><g><path d="M 10.34375 0 L 4.703125 0 L 4.703125 -41.625 L 10.34375 -41.625 Z M 10.34375 0 "/></g></g></g><g fill="#ae78b1" fill-opacity="1"><g transform="translate(1115.060132, 540.303749)"><g><path d="M 10.34375 -22.40625 L 21.53125 -22.40625 C 24.34375 -22.40625 26.453125 -23.019531 27.859375 -24.25 C 29.273438 -25.488281 29.984375 -27.363281 29.984375 -29.875 C 29.984375 -32.125 29.300781 -33.84375 27.9375 -35.03125 C 26.582031 -36.21875 24.519531 -36.8125 21.75 -36.8125 L 10.34375 -36.8125 Z M 10.34375 0 L 4.703125 0 L 4.703125 -41.625 L 23.421875 -41.625 C 27.140625 -41.625 30.128906 -40.539062 32.390625 -38.375 C 34.660156 -36.21875 35.796875 -33.40625 35.796875 -29.9375 C 35.796875 -26.332031 34.703125 -23.375 32.515625 -21.0625 C 30.328125 -18.75 27.296875 -17.59375 23.421875 -17.59375 L 10.34375 -17.59375 Z M 10.34375 0 "/></g></g></g><g fill="#ae78b1" fill-opacity="1"><g transform="translate(1152.552708, 540.303749)"><g><path d="M 29.234375 -29.453125 C 29.117188 -32.097656 28.128906 -34.171875 26.265625 -35.671875 C 24.410156 -37.171875 21.960938 -37.921875 18.921875 -37.921875 C 15.859375 -37.921875 13.503906 -37.289062 11.859375 -36.03125 C 10.222656 -34.78125 9.40625 -32.972656 9.40625 -30.609375 C 9.40625 -29.347656 9.765625 -28.265625 10.484375 -27.359375 C 11.203125 -26.453125 12.484375 -25.78125 14.328125 -25.34375 L 26.21875 -22.625 C 29.4375 -21.925781 31.816406 -20.597656 33.359375 -18.640625 C 34.910156 -16.691406 35.6875 -14.3125 35.6875 -11.5 C 35.6875 -7.382812 34.175781 -4.253906 31.15625 -2.109375 C 28.132812 0.0351562 24.207031 1.109375 19.375 1.109375 C 15.6875 1.109375 12.78125 0.632812 10.65625 -0.3125 C 8.539062 -1.257812 6.660156 -2.757812 5.015625 -4.8125 C 3.367188 -6.875 2.546875 -9.753906 2.546875 -13.453125 L 7.8125 -13.453125 C 7.8125 -10.359375 8.835938 -7.957031 10.890625 -6.25 C 12.953125 -4.550781 15.757812 -3.703125 19.3125 -3.703125 C 22.75 -3.703125 25.425781 -4.3125 27.34375 -5.53125 C 29.257812 -6.75 30.21875 -8.484375 30.21875 -10.734375 C 30.21875 -12.773438 29.644531 -14.300781 28.5 -15.3125 C 27.363281 -16.320312 25.132812 -17.210938 21.8125 -17.984375 L 12.828125 -20.078125 C 9.847656 -20.753906 7.617188 -21.9375 6.140625 -23.625 C 4.671875 -25.320312 3.9375 -27.40625 3.9375 -29.875 C 3.9375 -33.613281 5.195312 -36.691406 7.71875 -39.109375 C 10.238281 -41.523438 13.753906 -42.734375 18.265625 -42.734375 C 23.359375 -42.734375 27.289062 -41.671875 30.0625 -39.546875 C 32.832031 -37.421875 34.316406 -34.054688 34.515625 -29.453125 Z M 29.234375 -29.453125 "/></g></g></g><g fill="#000000" fill-opacity="1"><g transform="translate(464.196366, 541.498592)"><g><path d="M 11.234375 0 L 5.109375 0 L 5.109375 -45.234375 L 11.234375 -45.234375 Z M 11.234375 0 "/></g></g></g><g fill="#000000" fill-opacity="1"><g transform="translate(999.494259, 541.498592)"><g><path d="M 11.234375 0 L 5.109375 0 L 5.109375 -45.234375 L 11.234375 -45.234375 Z M 11.234375 0 "/></g></g></g><g fill="#000000" fill-opacity="1"><g transform="translate(1194.776202, 321.260593)"><g><path d="M 32.9375 -28.671875 C 35.238281 -28.671875 36.976562 -29.050781 38.15625 -29.8125 C 39.34375 -30.570312 39.9375 -31.941406 39.9375 -33.921875 C 39.9375 -35.347656 39.40625 -36.492188 38.34375 -37.359375 C 37.28125 -38.234375 35.457031 -38.671875 32.875 -38.671875 L 26.203125 -38.671875 L 26.203125 -28.671875 Z M 26.203125 -10.46875 L 21.3125 -10.46875 L 21.3125 -42.828125 L 33.921875 -42.828125 C 41.335938 -42.828125 45.046875 -39.757812 45.046875 -33.625 C 45.046875 -28.476562 42.328125 -25.507812 36.890625 -24.71875 L 45.875 -10.46875 L 40.375 -10.46875 L 31.859375 -24.5 L 26.203125 -24.5 Z M 9.28125 -26.703125 C 9.28125 -20.234375 11.453125 -14.707031 15.796875 -10.125 C 20.148438 -5.550781 25.597656 -3.265625 32.140625 -3.265625 C 38.660156 -3.265625 44.070312 -5.539062 48.375 -10.09375 C 52.675781 -14.644531 54.828125 -20.179688 54.828125 -26.703125 C 54.828125 -33.253906 52.675781 -38.773438 48.375 -43.265625 C 44.070312 -47.765625 38.660156 -50.015625 32.140625 -50.015625 C 25.597656 -50.015625 20.148438 -47.765625 15.796875 -43.265625 C 11.453125 -38.773438 9.28125 -33.253906 9.28125 -26.703125 Z M 32.140625 1.40625 C 24.316406 1.40625 17.609375 -1.316406 12.015625 -6.765625 C 6.421875 -12.210938 3.625 -18.859375 3.625 -26.703125 C 3.625 -34.578125 6.40625 -41.207031 11.96875 -46.59375 C 17.539062 -51.988281 24.265625 -54.6875 32.140625 -54.6875 C 39.992188 -54.6875 46.679688 -51.988281 52.203125 -46.59375 C 57.722656 -41.207031 60.484375 -34.578125 60.484375 -26.703125 C 60.484375 -18.804688 57.722656 -12.144531 52.203125 -6.71875 C 46.679688 -1.300781 39.992188 1.40625 32.140625 1.40625 Z M 32.140625 1.40625 "/></g></g></g></svg>