<svg xmlns="http://www.w3.org/2000/svg" xmlns:xlink="http://www.w3.org/1999/xlink" width="1748" zoomAndPan="magnify" viewBox="0 0 1311 809.999993" height="1080" preserveAspectRatio="xMidYMid meet" version="1.0"><defs><g/></defs><g fill="#ffffff" fill-opacity="1"><g transform="translate(85.24861, 472.977741)"><g><path d="M 88.828125 -31.484375 L 133.15625 -132.75 L 153.609375 -132.75 L 161.03125 0 L 140.578125 0 L 135.15625 -114.109375 L 134.359375 -114.109375 L 83.828125 0 L 81.015625 0 L 31.484375 -109.484375 L 30.6875 -109.484375 L 25.265625 0 L 16.4375 0 L 23.859375 -132.75 L 42.515625 -132.75 Z M 88.828125 -31.484375 "/></g></g></g><g fill="#ffffff" fill-opacity="1"><g transform="translate(263.513946, 472.977741)"><g><path d="M 2 0 L 61.5625 -135.953125 L 64.578125 -135.953125 L 124.125 0 L 102.265625 0 L 87.234375 -36.09375 L 27.671875 -36.09375 L 12.828125 0 Z M 30.6875 -43.71875 L 84.015625 -43.71875 L 57.546875 -108.6875 Z M 30.6875 -43.71875 "/></g></g></g><g fill="#ffffff" fill-opacity="1"><g transform="translate(389.643202, 472.977741)"><g><path d="M 118.921875 2.203125 L 115.5 2.203125 L 27.671875 -107.6875 L 26.875 -107.6875 L 26.875 0 L 18.046875 0 L 18.046875 -132.75 L 32.890625 -132.75 L 109.296875 -36.296875 L 110.09375 -36.296875 L 110.09375 -132.75 L 118.921875 -132.75 Z M 118.921875 2.203125 "/></g></g></g><g fill="#ffffff" fill-opacity="1"><g transform="translate(526.600722, 472.977741)"><g><path d="M 36.5 -132.75 L 36.5 0 L 18.046875 0 L 18.046875 -132.75 Z M 36.5 -132.75 "/></g></g></g><g fill="#ffffff" fill-opacity="1"><g transform="translate(581.14313, 472.977741)"><g><path d="M 37.5 -73.390625 L 80.015625 -73.390625 L 80.015625 -65.78125 L 37.5 -65.78125 L 37.5 0 L 18.046875 0 L 18.046875 -132.75 L 96.453125 -132.75 L 96.453125 -119.3125 L 59.359375 -125.53125 C 52.671875 -125.53125 45.382812 -124.394531 37.5 -122.125 Z M 37.5 -73.390625 "/></g></g></g><g fill="#ffffff" fill-opacity="1"><g transform="translate(677.594909, 472.977741)"><g><path d="M 36.5 -132.75 L 36.5 0 L 18.046875 0 L 18.046875 -132.75 Z M 36.5 -132.75 "/></g></g></g><g fill="#ffffff" fill-opacity="1"><g transform="translate(732.137316, 472.977741)"><g><path d="M 79.203125 2.40625 C 58.484375 2.40625 41.035156 -3.207031 26.859375 -14.4375 C 12.691406 -25.664062 5.609375 -41.773438 5.609375 -62.765625 C 5.609375 -75.066406 7.945312 -86.03125 12.625 -95.65625 C 17.3125 -105.28125 23.460938 -112.832031 31.078125 -118.3125 C 46.453125 -129.539062 63.695312 -135.15625 82.8125 -135.15625 C 93.914062 -135.15625 105.484375 -133.148438 117.515625 -129.140625 L 115.5 -115.5 C 109.21875 -118.175781 104.34375 -120.179688 100.875 -121.515625 C 90.84375 -125.128906 80.75 -126.9375 70.59375 -126.9375 C 56.550781 -123.726562 45.753906 -116.773438 38.203125 -106.078125 C 30.648438 -95.378906 26.875 -82.007812 26.875 -65.96875 C 26.875 -46.320312 32.019531 -31.179688 42.3125 -20.546875 C 52.601562 -9.921875 66.171875 -4.609375 83.015625 -4.609375 C 99.859375 -4.609375 112.425781 -8.21875 120.71875 -15.4375 L 120.71875 -4.40625 C 109.21875 0.132812 95.378906 2.40625 79.203125 2.40625 Z M 79.203125 2.40625 "/></g></g></g><g fill="#ffffff" fill-opacity="1"><g transform="translate(858.868129, 472.977741)"><g><path d="M 2 0 L 61.5625 -135.953125 L 64.578125 -135.953125 L 124.125 0 L 102.265625 0 L 87.234375 -36.09375 L 27.671875 -36.09375 L 12.828125 0 Z M 30.6875 -43.71875 L 84.015625 -43.71875 L 57.546875 -108.6875 Z M 30.6875 -43.71875 "/></g></g></g><g fill="#ffffff" fill-opacity="1"><g transform="translate(984.997385, 472.977741)"><g><path d="M 37.703125 -63.375 L 37.703125 0 L 18.046875 0 L 18.046875 -132.75 L 61.359375 -132.75 C 74.859375 -132.75 85.921875 -129.738281 94.546875 -123.71875 C 103.171875 -117.707031 107.484375 -109.785156 107.484375 -99.953125 C 107.484375 -90.128906 104.039062 -82.378906 97.15625 -76.703125 C 90.269531 -71.023438 80.945312 -67.113281 69.1875 -64.96875 L 122.921875 0 L 99.65625 2.8125 L 53.140625 -63.375 Z M 37.703125 -69.390625 L 50.53125 -69.390625 C 74.59375 -69.390625 86.625 -78.878906 86.625 -97.859375 C 86.625 -101.066406 85.820312 -104.675781 84.21875 -108.6875 C 81.144531 -117.113281 74.597656 -122.660156 64.578125 -125.328125 C 55.484375 -125.328125 46.523438 -124.191406 37.703125 -121.921875 Z M 37.703125 -69.390625 "/></g></g></g><g fill="#ffffff" fill-opacity="1"><g transform="translate(1112.931361, 472.977741)"><g><path d="M 18.046875 0 L 18.046875 -132.75 L 98.453125 -132.75 L 96.453125 -119.3125 L 59.15625 -125.53125 C 52.601562 -125.53125 45.382812 -124.394531 37.5 -122.125 L 37.5 -73.390625 L 82.015625 -73.390625 L 82.015625 -65.78125 L 37.5 -65.78125 L 37.5 -7.21875 L 99.65625 -13.4375 L 97.65625 0 Z M 18.046875 0 "/></g></g></g></svg>