<svg xmlns="http://www.w3.org/2000/svg" xmlns:xlink="http://www.w3.org/1999/xlink" width="1960" zoomAndPan="magnify" viewBox="0 0 1470 809.999993" height="1080" preserveAspectRatio="xMidYMid meet" version="1.0"><defs><clipPath id="7619aa5aae"><path d="M 267 170.25 L 541 170.25 L 541 427.320312 L 267 427.320312 Z M 267 170.25 " clip-rule="nonzero"/></clipPath><clipPath id="9efc7541d4"><path d="M 349.625 204.332031 C 346.269531 212.226562 344.023438 218.667969 340.917969 224.625 C 330.226562 245.195312 318.609375 265.277344 308.765625 286.265625 C 305.878906 292.429688 304.976562 302.441406 307.828125 308.1875 C 320.578125 333.8125 334.671875 358.75 349.164062 383.382812 C 351.816406 387.898438 358.5 392.335938 363.457031 392.5 C 390.390625 393.390625 417.367188 393.304688 444.300781 392.609375 C 449.210938 392.476562 456.222656 389.316406 458.527344 385.265625 C 473.851562 358.265625 488.265625 330.695312 502.613281 303.121094 C 504.046875 300.371094 504.410156 295.515625 503.03125 292.90625 C 488.9375 266.28125 474.625 239.777344 459.726562 213.636719 C 457.390625 209.527344 451.917969 204.828125 447.8125 204.738281 C 414.703125 204.011719 381.582031 204.332031 349.625 204.332031 M 404.242188 170.503906 C 423.984375 170.515625 443.75 169.945312 463.449219 170.890625 C 468.65625 171.144531 475.914062 174.699219 478.402344 179.082031 C 499.035156 215.441406 519.097656 252.164062 538.421875 289.292969 C 541.007812 294.269531 540.789062 303.308594 538.136719 308.363281 C 518.644531 345.492188 498.441406 382.214844 477.75 418.640625 C 475.394531 422.800781 468.6875 426.566406 463.953125 426.632812 C 423.996094 427.261719 384.023438 427.316406 344.078125 426.601562 C 339.011719 426.511719 331.910156 422.296875 329.367188 417.792969 C 308.542969 381.003906 288.347656 343.820312 268.683594 306.347656 C 266.394531 301.988281 266.535156 294.039062 268.847656 289.625 C 288.050781 253.011719 307.675781 216.621094 328.15625 180.769531 C 331.0625 175.667969 339.121094 171.320312 345.046875 170.957031 C 364.710938 169.734375 384.5 170.496094 404.242188 170.503906 " clip-rule="nonzero"/></clipPath><clipPath id="7ffafe3ec9"><path d="M 86.492188 284.503906 L 343 284.503906 L 343 534.984375 L 86.492188 534.984375 Z M 86.492188 284.503906 " clip-rule="nonzero"/></clipPath><clipPath id="0a629ba3d9"><path d="M 252.804688 317.757812 C 230.671875 317.757812 209.09375 318.351562 187.578125 317.515625 C 176.269531 317.074219 169.539062 321.632812 164.484375 330.949219 C 151.921875 354.125 138.699219 376.953125 126.773438 400.449219 C 124.339844 405.238281 124.382812 413.355469 126.796875 418.175781 C 136.648438 437.898438 144.753906 456.835938 155.160156 476.304688 C 159.101562 483.671875 165.136719 491.6875 168.957031 500.707031 C 199.730469 500.707031 232.007812 501.34375 264.203125 500.121094 C 270.058594 499.902344 277.480469 493.273438 281.003906 487.625 C 293.085938 468.257812 303.742188 447.996094 314.964844 428.03125 C 324.34375 433.613281 332.4375 438.4375 342.679688 444.539062 C 335.554688 456.96875 327.933594 470.820312 320.5 484.210938 C 297.773438 525.105469 306.078125 531.824219 255.515625 533.472656 C 233.988281 534.125 190.726562 533.5625 168.582031 534.113281 C 158.230469 534.367188 151.117188 530.84375 146.128906 521.878906 C 126.773438 487.097656 106.929688 452.574219 88.15625 417.484375 C 85.648438 412.78125 86.109375 404.257812 88.730469 399.402344 C 107.128906 365.246094 126.609375 331.675781 145.402344 297.714844 C 150.347656 288.785156 156.757812 284.4375 167.304688 284.65625 C 191.871094 285.152344 216.457031 284.945312 241.023438 284.746094 C 250.195312 284.667969 253.125 284.644531 253.125 284.644531 C 253.125 284.644531 252.792969 309.015625 252.792969 317.746094 " clip-rule="nonzero"/></clipPath><clipPath id="828be26fbf"><path d="M 282.042969 423 L 541.3125 423 L 541.3125 640 L 282.042969 640 Z M 282.042969 423 " clip-rule="nonzero"/></clipPath><clipPath id="52a7eaad5a"><path d="M 282.933594 548.03125 C 302.664062 546.234375 300.273438 545.640625 309.238281 536.039062 C 316.550781 548.527344 325.777344 563.976562 334.585938 576.550781 C 349.59375 597.964844 360.472656 610.296875 388.496094 608.84375 C 415.671875 607.445312 436.582031 608.273438 457.832031 608.273438 C 468.214844 588.550781 476.835938 570.121094 487.441406 553.316406 C 502.667969 529.203125 508.847656 506.671875 488.15625 481.875 C 479.148438 471.085938 469.570312 453.269531 462.898438 441.003906 C 475.746094 438.316406 482.53125 434.21875 489.621094 429.265625 C 490.84375 427.480469 492.066406 425.710938 493.277344 423.925781 C 494.707031 427.480469 495.730469 431.269531 497.613281 434.574219 C 510.894531 457.90625 524.359375 481.140625 537.738281 504.417969 C 542.332031 512.410156 542.527344 520.226562 537.816406 528.476562 C 518.316406 562.621094 499.34375 597.0625 479.359375 630.921875 C 476.792969 635.261719 469.480469 639.136719 464.304688 639.234375 C 424.777344 639.917969 385.226562 639.863281 345.695312 639.300781 C 340.773438 639.234375 333.769531 636.164062 331.390625 632.253906 C 316.429688 607.734375 302.433594 582.617188 288.347656 557.554688 C 286.808594 554.8125 283.582031 550.972656 282.910156 548.03125 " clip-rule="nonzero"/></clipPath><clipPath id="1a2a0486ca"><path d="M 606.789062 260.609375 L 689 260.609375 L 689 468.777344 L 606.789062 468.777344 Z M 606.789062 260.609375 " clip-rule="nonzero"/></clipPath><clipPath id="9f000257eb"><path d="M 646.757812 468.464844 C 638.53125 468.058594 629.933594 468.960938 622.214844 466.757812 C 617.445312 465.402344 614.042969 459.324219 610.023438 455.363281 C 614.394531 453.050781 618.589844 449.304688 623.183594 448.734375 C 632.167969 447.632812 641.382812 448.269531 650.492188 448.257812 C 658.992188 448.25 663.503906 443.921875 663.59375 435.5625 C 663.769531 418.660156 664.023438 401.75 663.503906 384.867188 C 663.1875 374.277344 657.746094 367.96875 646.085938 368.660156 C 640.460938 369.003906 634.753906 368.265625 629.160156 368.792969 C 613.84375 370.257812 608.726562 363.707031 607.757812 349.191406 C 606.292969 327.191406 606.722656 304.996094 607.523438 282.917969 C 608.007812 269.59375 615.792969 262.152344 629.097656 261.378906 C 642.9375 260.574219 656.867188 261.015625 670.738281 261.390625 C 674.03125 261.480469 677.996094 262.636719 680.339844 264.75 C 683.28125 267.390625 684.878906 271.53125 687.058594 275.023438 C 683.558594 276.652344 680.144531 279.414062 676.542969 279.691406 C 667.480469 280.386719 658.308594 280.308594 649.214844 279.867188 C 638.839844 279.371094 632.871094 285.085938 632.464844 294.105469 C 631.816406 308.683594 632.90625 323.371094 633.984375 337.972656 C 634.722656 348.027344 641.570312 351.339844 651.085938 351.878906 C 688.753906 354.015625 688.753906 354.171875 688.753906 392.578125 C 688.753906 408.621094 688.863281 424.664062 688.710938 440.695312 C 688.523438 460.769531 681.429688 467.714844 661.117188 468.070312 C 656.335938 468.15625 651.570312 468.078125 646.789062 468.078125 C 646.78125 468.199219 646.78125 468.332031 646.769531 468.453125 " clip-rule="nonzero"/></clipPath><clipPath id="3e3ea61b15"><path d="M 611.863281 536 L 679.332031 536 L 679.332031 628 L 611.863281 628 Z M 611.863281 536 " clip-rule="nonzero"/></clipPath><clipPath id="fca1e41e6b"><path d="M 669.175781 595.199219 L 679.328125 598.160156 C 677.082031 608.125 673.164062 615.558594 667.558594 620.457031 C 661.953125 625.359375 655.128906 627.8125 647.089844 627.8125 C 640.019531 627.8125 633.984375 626.171875 628.964844 622.882812 C 623.945312 619.589844 619.847656 614.3125 616.65625 607.046875 C 613.460938 599.78125 611.863281 591.203125 611.863281 581.3125 C 611.863281 571.546875 613.460938 563.289062 616.664062 556.527344 C 619.871094 549.765625 624.1875 544.667969 629.648438 541.210938 C 635.109375 537.753906 641.210938 536.035156 647.949219 536.035156 C 655.316406 536.035156 661.644531 538.21875 666.941406 542.589844 C 672.238281 546.960938 675.9375 553.355469 678.0625 561.8125 L 668.164062 564.535156 C 664.773438 552.234375 657.96875 546.078125 647.761719 546.078125 C 642.671875 546.078125 638.269531 547.324219 634.535156 549.800781 C 630.804688 552.277344 627.832031 556.144531 625.605469 561.394531 C 623.382812 566.648438 622.269531 573.289062 622.269531 581.3125 C 622.269531 593.460938 624.515625 602.578125 628.996094 608.65625 C 633.480469 614.734375 639.449219 617.773438 646.902344 617.773438 C 652.398438 617.773438 657.152344 615.910156 661.148438 612.179688 C 665.148438 608.445312 667.824219 602.796875 669.175781 595.210938 " clip-rule="nonzero"/></clipPath><clipPath id="324e9a84a1"><path d="M 719.003906 536.035156 L 792 536.035156 L 792 627.84375 L 719.003906 627.84375 Z M 719.003906 536.035156 " clip-rule="nonzero"/></clipPath><clipPath id="6f3a06a58d"><path d="M 729.40625 583.253906 C 729.40625 594.1875 731.941406 602.675781 736.996094 608.710938 C 742.046875 614.742188 748.191406 617.761719 755.425781 617.761719 C 762.828125 617.761719 769.035156 614.710938 774.058594 608.621094 C 779.078125 602.53125 781.578125 593.558594 781.578125 581.734375 C 781.578125 574.101562 780.289062 567.285156 777.703125 561.261719 C 775.710938 556.660156 772.726562 552.984375 768.71875 550.207031 C 764.710938 547.433594 760.347656 546.058594 755.613281 546.058594 C 747.996094 546.058594 741.730469 549.085938 736.796875 555.140625 C 731.863281 561.195312 729.398438 570.554688 729.398438 583.230469 M 719.003906 583.109375 C 719.003906 567.980469 722.492188 556.351562 729.472656 548.226562 C 736.457031 540.101562 745.152344 536.035156 755.558594 536.035156 C 762.285156 536.035156 768.421875 537.855469 773.96875 541.488281 C 779.519531 545.121094 783.902344 550.394531 787.140625 557.308594 C 790.375 564.226562 791.996094 572.460938 791.996094 582.019531 C 791.996094 595.167969 788.867188 605.878906 782.601562 614.136719 C 775.710938 623.253906 766.667969 627.8125 755.503906 627.8125 C 744.25 627.8125 735.199219 623.132812 728.339844 613.773438 C 722.109375 605.308594 719.003906 595.078125 719.003906 583.109375 " clip-rule="nonzero"/></clipPath><clipPath id="1e208260a1"><path d="M 723 261 L 748 261 L 748 468.613281 L 723 468.613281 Z M 723 261 " clip-rule="nonzero"/></clipPath><clipPath id="ade09b7048"><path d="M 747.867188 364.019531 C 747.867188 393.957031 747.820312 423.898438 747.898438 453.835938 C 747.921875 461.621094 746.203125 467.292969 736.789062 468.105469 C 726.449219 468.996094 723.191406 464.914062 723.265625 454.75 C 723.652344 406.585938 723.433594 358.425781 723.433594 310.25 C 723.433594 298.105469 723.75 285.9375 723.378906 273.804688 C 723.078125 264.589844 728.144531 261.617188 736.140625 261.1875 C 745.421875 260.691406 748.007812 265.8125 747.953125 274.199219 C 747.746094 304.140625 747.875 334.078125 747.867188 364.019531 " clip-rule="nonzero"/></clipPath><clipPath id="83eb3dd049"><path d="M 754.417969 316.308594 L 824 316.308594 L 824 468.613281 L 754.417969 468.613281 Z M 754.417969 316.308594 " clip-rule="nonzero"/></clipPath><clipPath id="85e850a311"><path d="M 820.957031 318.742188 C 819.0625 323.464844 818.117188 327.648438 815.914062 330.984375 C 806.191406 345.730469 796.457031 360.496094 786.007812 374.730469 C 780.578125 382.132812 780.511719 388.429688 785.148438 396.082031 C 797.183594 415.992188 808.777344 436.164062 820.472656 456.28125 C 821.902344 458.746094 822.839844 461.519531 823.984375 464.097656 C 810.265625 471.035156 800.53125 469.703125 793.441406 458.164062 C 780.171875 436.539062 767.742188 414.382812 755.652344 392.074219 C 753.855469 388.75 754.328125 382.441406 756.378906 379.113281 C 766.980469 361.859375 778.257812 345.011719 789.664062 328.265625 C 796.632812 318.035156 805.992188 313.191406 820.96875 318.742188 " clip-rule="nonzero"/></clipPath><clipPath id="56b2293992"><path d="M 841.851562 316.109375 L 866.542969 316.109375 L 866.542969 467.617188 L 841.851562 467.617188 Z M 841.851562 316.109375 " clip-rule="nonzero"/></clipPath><clipPath id="ff50468a13"><path d="M 866.355469 392.179688 C 866.347656 413.003906 866.125 433.835938 866.445312 454.644531 C 866.597656 464.203125 862.589844 467.585938 853.164062 467.539062 C 843.289062 467.484375 841.933594 462.234375 841.96875 454.214844 C 842.144531 413.011719 842.1875 371.800781 841.945312 330.585938 C 841.890625 320.984375 844.898438 316.214844 855.390625 316.203125 C 866.765625 316.191406 866.402344 323.316406 866.378906 331.015625 C 866.335938 351.40625 866.355469 371.789062 866.355469 392.179688 " clip-rule="nonzero"/></clipPath><clipPath id="727d22140d"><path d="M 844.039062 537.613281 L 891.890625 537.613281 L 891.890625 626.425781 L 844.039062 626.425781 Z M 844.039062 537.613281 " clip-rule="nonzero"/></clipPath><clipPath id="7f78c8b3c2"><path d="M 844.039062 626.292969 L 844.039062 537.613281 L 854.136719 537.613281 L 854.136719 615.835938 L 891.707031 615.835938 L 891.707031 626.304688 Z M 844.039062 626.292969 " clip-rule="nonzero"/></clipPath><clipPath id="fb189c1ffa"><path d="M 873.335938 236.074219 L 901.859375 236.074219 L 901.859375 260.761719 L 873.335938 260.761719 Z M 873.335938 236.074219 " clip-rule="nonzero"/></clipPath><clipPath id="bd1558d76b"><path d="M 886.058594 260.441406 C 876.347656 262.046875 873.441406 257.523438 873.429688 248.019531 C 873.417969 237.417969 879.125 236.148438 887.515625 236.171875 C 895.894531 236.195312 902.523438 237.59375 901.785156 248.007812 C 901.101562 257.632812 895.882812 261.9375 886.058594 260.441406 " clip-rule="nonzero"/></clipPath><clipPath id="ea69a779e1"><path d="M 901.945312 316.261719 L 999.476562 316.261719 L 999.476562 468.4375 L 901.945312 468.4375 Z M 901.945312 316.261719 " clip-rule="nonzero"/></clipPath><clipPath id="13c6b483ae"><path d="M 902.03125 392.964844 C 902.042969 372.152344 902.199219 351.339844 901.976562 330.53125 C 901.878906 320.949219 905.414062 316.050781 915.730469 316.269531 C 933.570312 316.65625 951.417969 316.292969 969.253906 316.371094 C 990.9375 316.457031 998.929688 324.417969 998.984375 346.167969 C 999.074219 381.722656 998.863281 417.277344 999.09375 452.832031 C 999.160156 462.464844 997.167969 468.257812 985.519531 468.34375 C 973.175781 468.433594 972.648438 461.574219 972.703125 452.457031 C 972.890625 419.070312 972.394531 385.675781 972.976562 352.300781 C 973.175781 341.011719 969.507812 336.929688 958.089844 337.160156 C 921.699219 337.886719 928.164062 334.242188 927.765625 366.339844 C 927.402344 395.386719 927.390625 424.445312 927.832031 453.492188 C 927.996094 464.007812 924.332031 468.222656 913.550781 468.3125 C 902.628906 468.398438 901.878906 462.320312 901.96875 454.117188 C 902.164062 433.738281 902.03125 413.367188 902.042969 392.984375 " clip-rule="nonzero"/></clipPath><clipPath id="f84bcda1de"><path d="M 930.996094 536 L 1004 536 L 1004 627.84375 L 930.996094 627.84375 Z M 930.996094 536 " clip-rule="nonzero"/></clipPath><clipPath id="bbb23c298e"><path d="M 941.402344 583.253906 C 941.402344 594.1875 943.933594 602.675781 948.988281 608.710938 C 954.042969 614.742188 960.1875 617.761719 967.421875 617.761719 C 974.820312 617.761719 981.042969 614.710938 986.050781 608.621094 C 991.0625 602.53125 993.582031 593.558594 993.582031 581.734375 C 993.582031 574.101562 992.296875 567.285156 989.707031 561.261719 C 987.714844 556.660156 984.71875 552.984375 980.734375 550.207031 C 976.746094 547.433594 972.363281 546.058594 967.628906 546.058594 C 960.011719 546.058594 953.734375 549.085938 948.8125 555.140625 C 943.890625 561.195312 941.414062 570.554688 941.414062 583.230469 M 930.996094 583.109375 C 930.996094 567.980469 934.488281 556.351562 941.46875 548.226562 C 948.449219 540.101562 957.148438 536.035156 967.554688 536.035156 C 974.28125 536.035156 980.414062 537.855469 985.964844 541.488281 C 991.511719 545.121094 995.894531 550.394531 999.132812 557.308594 C 1002.371094 564.226562 1003.988281 572.460938 1003.988281 582.019531 C 1003.988281 595.167969 1000.851562 605.878906 994.597656 614.136719 C 987.703125 623.253906 978.664062 627.8125 967.5 627.8125 C 956.246094 627.8125 947.195312 623.132812 940.332031 613.773438 C 934.101562 605.308594 930.996094 595.078125 930.996094 583.109375 " clip-rule="nonzero"/></clipPath><clipPath id="bacf89536f"><path d="M 1034 259.152344 L 1134 259.152344 L 1134 467.507812 L 1034 467.507812 Z M 1034 259.152344 " clip-rule="nonzero"/></clipPath><clipPath id="1eca76a6b8"><path d="M 1034.300781 365.289062 C 1034.300781 339.28125 1034.179688 313.261719 1034.34375 287.253906 C 1034.433594 271.375 1043.660156 260.582031 1059.316406 259.835938 C 1077.949219 258.953125 1096.699219 258.820312 1115.277344 260.066406 C 1119.824219 260.375 1126.539062 266.628906 1127.683594 271.277344 C 1129.855469 280.105469 1121.75 279.851562 1115.617188 279.898438 C 1103.460938 279.984375 1091.304688 279.84375 1079.148438 279.964844 C 1065.769531 280.09375 1059.703125 284.984375 1059.558594 298.515625 C 1059.109375 342.726562 1059.164062 386.957031 1059.558594 431.167969 C 1059.648438 441.417969 1064.679688 447.1875 1076.738281 447.121094 C 1107.425781 446.957031 1107.4375 447.484375 1107.4375 416.136719 C 1107.4375 406.171875 1107.171875 396.183594 1107.492188 386.230469 C 1107.777344 377.410156 1105.34375 372.039062 1095.101562 372.742188 C 1088.507812 373.195312 1081.425781 373.183594 1081.835938 363.183594 C 1082.21875 353.945312 1087.933594 351.753906 1095.886719 351.855469 C 1141.910156 352.382812 1132.871094 346.402344 1133.730469 388.027344 C 1134.082031 405.355469 1133.984375 422.710938 1133.707031 440.042969 C 1133.433594 457.8125 1123.984375 467.140625 1106.289062 467.328125 C 1089.796875 467.503906 1073.289062 467.601562 1056.796875 467.261719 C 1042.316406 466.976562 1034.476562 459.023438 1034.367188 444.621094 C 1034.15625 418.175781 1034.3125 391.726562 1034.300781 365.289062 " clip-rule="nonzero"/></clipPath><clipPath id="45e3f4cba5"><path d="M 1046.386719 537.613281 L 1119.246094 537.613281 L 1119.246094 626.410156 L 1046.386719 626.410156 Z M 1046.386719 537.613281 " clip-rule="nonzero"/></clipPath><clipPath id="9798820e53"><path d="M 1046.386719 626.292969 L 1046.386719 537.613281 L 1061.558594 537.613281 L 1079.671875 600.40625 L 1083.296875 613.53125 C 1084.1875 610.261719 1085.542969 605.527344 1087.359375 599.316406 L 1105.660156 537.613281 L 1119.246094 537.613281 L 1119.246094 626.292969 L 1109.535156 626.292969 L 1109.535156 552.125 L 1087.292969 626.292969 L 1078.21875 626.292969 L 1056.097656 550.847656 L 1056.097656 626.292969 Z M 1046.386719 626.292969 " clip-rule="nonzero"/></clipPath><clipPath id="32c90746be"><path d="M 1165.011719 537.613281 L 1222.640625 537.613281 L 1222.640625 626.535156 L 1165.011719 626.535156 Z M 1165.011719 537.613281 " clip-rule="nonzero"/></clipPath><clipPath id="85083b945a"><path d="M 1175.109375 615.835938 L 1194.113281 615.835938 C 1198.308594 615.835938 1201.402344 615.46875 1203.394531 614.742188 C 1206.28125 613.699219 1208.472656 611.96875 1209.96875 609.570312 C 1211.464844 607.167969 1212.226562 604.152344 1212.226562 600.527344 C 1212.226562 597.179688 1211.511719 594.351562 1210.066406 592.027344 C 1208.625 589.703125 1206.6875 588.007812 1204.242188 586.953125 C 1201.796875 585.894531 1197.976562 585.34375 1192.769531 585.34375 L 1175.109375 585.34375 Z M 1175.109375 574.871094 L 1191.636719 574.871094 C 1195.960938 574.871094 1199.035156 574.585938 1200.851562 574.023438 C 1203.484375 573.175781 1205.507812 571.757812 1206.929688 569.765625 C 1208.351562 567.769531 1209.054688 565.050781 1209.054688 561.625 C 1209.054688 558.445312 1208.40625 555.789062 1207.117188 553.664062 C 1205.828125 551.539062 1204.109375 550.085938 1201.964844 549.28125 C 1199.816406 548.480469 1195.984375 548.070312 1190.425781 548.070312 L 1175.109375 548.070312 Z M 1165.011719 626.304688 L 1165.011719 537.613281 L 1193.671875 537.613281 C 1199.476562 537.613281 1204.078125 538.46875 1207.457031 540.175781 C 1210.839844 541.882812 1213.625 544.558594 1215.78125 548.191406 C 1217.941406 551.828125 1219.019531 555.835938 1219.019531 560.226562 C 1219.019531 564.300781 1218.09375 567.96875 1216.222656 571.226562 C 1214.351562 574.488281 1211.742188 577.117188 1208.351562 579.089844 C 1212.777344 580.621094 1216.257812 583.242188 1218.808594 586.929688 C 1221.363281 590.617188 1222.632812 595.175781 1222.632812 600.582031 C 1222.632812 605.945312 1221.476562 610.660156 1219.175781 614.722656 C 1216.871094 618.785156 1213.789062 621.726562 1209.9375 623.5625 C 1206.082031 625.402344 1200.796875 626.316406 1194.070312 626.316406 Z M 1165.011719 626.304688 " clip-rule="nonzero"/></clipPath><clipPath id="cca0a20951"><path d="M 1268.277344 537.613281 L 1278.371094 537.613281 L 1278.371094 626.292969 L 1268.277344 626.292969 Z M 1268.277344 537.613281 " clip-rule="nonzero"/></clipPath><clipPath id="0afddbcc5e"><path d="M 1165.308594 315.726562 L 1385 315.726562 L 1385 467.566406 L 1165.308594 467.566406 Z M 1165.308594 315.726562 " clip-rule="nonzero"/></clipPath><clipPath id="fe9095c12c"><path d="M 1384.878906 396.847656 C 1384.878906 416.355469 1384.757812 435.867188 1384.9375 455.378906 C 1385 463.078125 1382.933594 467.40625 1373.957031 467.558594 C 1364.367188 467.722656 1362.21875 463.320312 1362.285156 454.90625 C 1362.527344 421.949219 1362.441406 388.996094 1362.328125 356.039062 C 1362.265625 337.496094 1359.753906 335.117188 1341.289062 335.0625 C 1338.25 335.050781 1335.210938 335.039062 1332.171875 335.074219 C 1316.183594 335.226562 1314.234375 337.011719 1314.167969 353.152344 C 1314.035156 385.238281 1314.234375 417.328125 1314.058594 449.421875 C 1313.96875 465.289062 1311.777344 467.339844 1295.777344 467.371094 C 1260.597656 467.449219 1225.429688 467.503906 1190.25 467.339844 C 1171.453125 467.25 1165.40625 461.039062 1165.375 442.375 C 1165.308594 409.859375 1165.265625 377.335938 1165.398438 344.808594 C 1165.472656 325.4375 1174.84375 316.058594 1193.894531 315.925781 C 1206.917969 315.828125 1219.945312 315.769531 1232.972656 315.949219 C 1249.410156 316.15625 1257.03125 323.457031 1257.285156 339.402344 C 1257.527344 354.574219 1257.527344 369.757812 1257.285156 384.933594 C 1257.054688 399.585938 1251.734375 405.964844 1237.550781 407.128906 C 1226.773438 408.011719 1215.75 408.242188 1205.070312 406.910156 C 1201.082031 406.414062 1195.492188 401.160156 1194.609375 397.199219 C 1192.96875 389.808594 1198.585938 386.574219 1205.820312 386.695312 C 1206.25 386.703125 1206.699219 386.738281 1207.117188 386.660156 C 1215.609375 385.03125 1230.375 385.128906 1231.410156 381.417969 C 1234.625 369.914062 1234.898438 356.390625 1232.035156 344.699219 C 1228.46875 330.109375 1214.199219 336.007812 1204.1875 335.832031 C 1195.796875 335.691406 1190.953125 340.910156 1191.007812 350.09375 C 1191.175781 377.839844 1191.183594 405.597656 1191.007812 433.347656 C 1190.941406 443.554688 1196.117188 447.011719 1205.652344 446.925781 C 1228.667969 446.703125 1251.691406 446.550781 1274.691406 447.011719 C 1284.691406 447.210938 1288.554688 443.820312 1288.414062 433.492188 C 1287.9375 400.976562 1288.191406 368.449219 1288.28125 335.933594 C 1288.335938 316.695312 1294.910156 312.246094 1313.320312 318.183594 C 1316.160156 319.097656 1319.640625 318.015625 1322.832031 317.917969 C 1338.347656 317.433594 1354.0625 315.320312 1369.320312 317.070312 C 1380.15625 318.316406 1384.871094 328.410156 1384.835938 339.621094 C 1384.792969 358.703125 1384.824219 377.773438 1384.824219 396.855469 Z M 1384.878906 396.847656 " clip-rule="nonzero"/></clipPath><clipPath id="e10179290b"><path d="M 1317.535156 537.609375 L 1389 537.609375 L 1389 626.382812 L 1317.535156 626.382812 Z M 1317.535156 537.609375 " clip-rule="nonzero"/></clipPath><clipPath id="5a30182df8"><path d="M 1339.421875 589.878906 L 1365.410156 589.878906 L 1357.480469 565.3125 C 1355.027344 557.773438 1353.230469 551.636719 1352.085938 546.925781 C 1351.09375 552.617188 1349.707031 558.257812 1347.902344 563.859375 Z M 1317.535156 626.304688 L 1346.957031 537.609375 L 1357.757812 537.609375 L 1388.996094 626.304688 L 1377.445312 626.304688 L 1368.570312 599.4375 L 1336.472656 599.4375 L 1328.179688 626.304688 Z M 1317.535156 626.304688 " clip-rule="nonzero"/></clipPath></defs><g clip-path="url(#7619aa5aae)"><g clip-path="url(#9efc7541d4)"><path fill="#ffffff" d="M 81 164.757812 L 546.804688 164.757812 L 546.804688 644.84375 L 81 644.84375 Z M 81 164.757812 " fill-opacity="1" fill-rule="nonzero"/></g></g><g clip-path="url(#7ffafe3ec9)"><g clip-path="url(#0a629ba3d9)"><path fill="#ffffff" d="M 81 164.757812 L 546.804688 164.757812 L 546.804688 644.84375 L 81 644.84375 Z M 81 164.757812 " fill-opacity="1" fill-rule="nonzero"/></g></g><g clip-path="url(#828be26fbf)"><g clip-path="url(#52a7eaad5a)"><path fill="#ffffff" d="M 81 164.757812 L 546.804688 164.757812 L 546.804688 644.84375 L 81 644.84375 Z M 81 164.757812 " fill-opacity="1" fill-rule="nonzero"/></g></g><g clip-path="url(#1a2a0486ca)"><g clip-path="url(#9f000257eb)"><path fill="#ffffff" d="M 606.789062 260.929688 L 688.773438 260.929688 L 688.773438 469.097656 L 606.789062 469.097656 Z M 606.789062 260.929688 " fill-opacity="1" fill-rule="nonzero"/></g></g><g clip-path="url(#3e3ea61b15)"><g clip-path="url(#fca1e41e6b)"><path fill="#ffffff" d="M 611.863281 536.035156 L 679.332031 536.035156 L 679.332031 627.75 L 611.863281 627.75 Z M 611.863281 536.035156 " fill-opacity="1" fill-rule="nonzero"/></g></g><g clip-path="url(#324e9a84a1)"><g clip-path="url(#6f3a06a58d)"><path fill="#ffffff" d="M 719.003906 536.035156 L 791.992188 536.035156 L 791.992188 627.84375 L 719.003906 627.84375 Z M 719.003906 536.035156 " fill-opacity="1" fill-rule="nonzero"/></g></g><g clip-path="url(#1e208260a1)"><g clip-path="url(#ade09b7048)"><path fill="#ffffff" d="M 717.761719 255.648438 L 829.480469 255.648438 L 829.480469 473.847656 L 717.761719 473.847656 Z M 717.761719 255.648438 " fill-opacity="1" fill-rule="nonzero"/></g></g><g clip-path="url(#83eb3dd049)"><g clip-path="url(#85e850a311)"><path fill="#ffffff" d="M 717.761719 255.648438 L 829.480469 255.648438 L 829.480469 473.847656 L 717.761719 473.847656 Z M 717.761719 255.648438 " fill-opacity="1" fill-rule="nonzero"/></g></g><g clip-path="url(#56b2293992)"><g clip-path="url(#ff50468a13)"><path fill="#ffffff" d="M 841.945312 316.203125 L 866.449219 316.203125 L 866.449219 467.523438 L 841.945312 467.523438 Z M 841.945312 316.203125 " fill-opacity="1" fill-rule="nonzero"/></g></g><g clip-path="url(#727d22140d)"><g clip-path="url(#7f78c8b3c2)"><path fill="#ffffff" d="M 844.039062 537.613281 L 891.703125 537.613281 L 891.703125 626.238281 L 844.039062 626.238281 Z M 844.039062 537.613281 " fill-opacity="1" fill-rule="nonzero"/></g></g><g clip-path="url(#fb189c1ffa)"><g clip-path="url(#bd1558d76b)"><path fill="#ffffff" d="M 873.429688 236.171875 L 901.859375 236.171875 L 901.859375 260.761719 L 873.429688 260.761719 Z M 873.429688 236.171875 " fill-opacity="1" fill-rule="nonzero"/></g></g><g clip-path="url(#ea69a779e1)"><g clip-path="url(#13c6b483ae)"><path fill="#ffffff" d="M 901.945312 316.261719 L 999.097656 316.261719 L 999.097656 468.4375 L 901.945312 468.4375 Z M 901.945312 316.261719 " fill-opacity="1" fill-rule="nonzero"/></g></g><g clip-path="url(#f84bcda1de)"><g clip-path="url(#bbb23c298e)"><path fill="#ffffff" d="M 930.996094 536.035156 L 1003.988281 536.035156 L 1003.988281 627.84375 L 930.996094 627.84375 Z M 930.996094 536.035156 " fill-opacity="1" fill-rule="nonzero"/></g></g><g clip-path="url(#bacf89536f)"><g clip-path="url(#1eca76a6b8)"><path fill="#ffffff" d="M 1034.257812 259.152344 L 1133.957031 259.152344 L 1133.957031 467.507812 L 1034.257812 467.507812 Z M 1034.257812 259.152344 " fill-opacity="1" fill-rule="nonzero"/></g></g><g clip-path="url(#45e3f4cba5)"><g clip-path="url(#9798820e53)"><path fill="#ffffff" d="M 1046.386719 537.613281 L 1119.246094 537.613281 L 1119.246094 626.410156 L 1046.386719 626.410156 Z M 1046.386719 537.613281 " fill-opacity="1" fill-rule="nonzero"/></g></g><g clip-path="url(#32c90746be)"><g clip-path="url(#85083b945a)"><path fill="#ffffff" d="M 1165.011719 537.613281 L 1222.640625 537.613281 L 1222.640625 626.308594 L 1165.011719 626.308594 Z M 1165.011719 537.613281 " fill-opacity="1" fill-rule="nonzero"/></g></g><g clip-path="url(#cca0a20951)"><path fill="#ffffff" d="M 1268.277344 537.613281 L 1278.367188 537.613281 L 1278.367188 626.316406 L 1268.277344 626.316406 Z M 1268.277344 537.613281 " fill-opacity="1" fill-rule="nonzero"/></g><g clip-path="url(#0afddbcc5e)"><g clip-path="url(#fe9095c12c)"><path fill="#ffffff" d="M 1165.308594 315.726562 L 1384.761719 315.726562 L 1384.761719 467.566406 L 1165.308594 467.566406 Z M 1165.308594 315.726562 " fill-opacity="1" fill-rule="nonzero"/></g></g><g clip-path="url(#e10179290b)"><g clip-path="url(#5a30182df8)"><path fill="#ffffff" d="M 1317.535156 537.609375 L 1389 537.609375 L 1389 626.382812 L 1317.535156 626.382812 Z M 1317.535156 537.609375 " fill-opacity="1" fill-rule="nonzero"/></g></g></svg>