<?xml version="1.0" encoding="UTF-8"?>
<svg id="Capa_1" data-name="Capa 1" xmlns="http://www.w3.org/2000/svg" viewBox="0 0 392.09 141.33">
  <defs>
    <style>
      .cls-1 {
        fill: #be1622;
      }

      .cls-1, .cls-2 {
        stroke-width: 0px;
      }

      .cls-2 {
        fill: #9d9d9c;
      }
    </style>
  </defs>
  <path class="cls-1" d="M95.65.07c5.94,0,11.89-.17,17.82.12,1.57.08,3.75,1.15,4.5,2.47,6.21,10.94,12.25,22,18.07,33.18.78,1.5.71,4.22-.09,5.74-5.87,11.18-11.95,22.23-18.18,33.2-.71,1.25-2.73,2.39-4.15,2.41-12.03.19-24.06.21-36.09,0-1.52-.03-3.66-1.3-4.43-2.65-6.27-11.08-12.35-22.27-18.27-33.55-.69-1.31-.65-3.7.05-5.03,5.78-11.02,11.69-21.98,17.85-32.77.88-1.53,3.3-2.84,5.09-2.95,5.92-.37,11.88-.14,17.82-.14ZM79.21,10.26c-1.01,2.38-1.69,4.31-2.62,6.11-3.22,6.19-6.72,12.24-9.68,18.56-.87,1.86-1.14,4.87-.28,6.6,3.84,7.71,8.08,15.22,12.44,22.64.8,1.36,2.81,2.7,4.3,2.75,8.11.27,16.23.24,24.34.03,1.48-.04,3.59-.99,4.28-2.21,4.61-8.13,8.95-16.43,13.27-24.73.43-.83.54-2.29.12-3.07-4.24-8.01-8.55-15.99-13.04-23.86-.7-1.24-2.35-2.65-3.59-2.68-9.97-.22-19.94-.12-29.56-.12Z"/>
  <path class="cls-1" d="M390.85,68.21c0,5.87-.04,11.75.02,17.62.02,2.32-.6,3.62-3.31,3.67-2.89.05-3.53-1.28-3.52-3.81.07-9.92.05-19.84.01-29.76-.02-5.58-.78-6.3-6.34-6.31-.92,0-1.83,0-2.75,0-4.81.05-5.4.58-5.42,5.44-.04,9.66.02,19.32-.03,28.98-.03,4.78-.69,5.39-5.5,5.4-10.59.02-21.18.04-31.77,0-5.66-.03-7.48-1.89-7.49-7.51-.02-9.79-.03-19.58,0-29.37.02-5.83,2.84-8.66,8.58-8.7,3.92-.03,7.84-.05,11.77,0,4.95.07,7.24,2.26,7.32,7.06.07,4.57.07,9.14,0,13.71-.07,4.41-1.67,6.33-5.94,6.68-3.25.27-6.56.34-9.78-.07-1.2-.15-2.88-1.73-3.15-2.92-.5-2.22,1.2-3.2,3.37-3.16.13,0,.26.01.39-.01,2.56-.49,7-.46,7.31-1.58.97-3.46,1.05-7.53.19-11.05-1.07-4.39-5.37-2.62-8.38-2.67-2.52-.04-3.98,1.53-3.97,4.29.05,8.35.05,16.71,0,25.06-.02,3.07,1.54,4.11,4.41,4.09,6.93-.07,13.86-.11,20.78.03,3.01.06,4.17-.96,4.13-4.07-.14-9.79-.07-19.58-.04-29.37.02-5.79,2-7.13,7.54-5.34.86.28,1.9-.05,2.86-.08,4.67-.14,9.4-.78,14-.26,3.26.37,4.68,3.42,4.67,6.79-.01,5.74,0,11.49,0,17.23,0,0,0,0,.01,0Z"/>
  <path class="cls-1" d="M50.06,44.4c-6.66,0-13.16.18-19.64-.07-3.4-.13-5.43,1.24-6.95,4.04-3.78,6.98-7.76,13.85-11.35,20.92-.73,1.44-.72,3.88,0,5.34,2.97,5.94,5.41,11.64,8.54,17.5,1.18,2.22,3,4.63,4.15,7.35,9.27,0,18.98.19,28.67-.17,1.76-.07,4-2.06,5.06-3.76,3.64-5.83,6.85-11.93,10.22-17.94,2.82,1.68,5.26,3.13,8.34,4.97-2.14,3.74-4.44,7.91-6.68,11.94-6.84,12.31-4.34,14.33-19.56,14.83-6.48.2-19.5.03-26.17.19-3.12.08-5.26-.98-6.76-3.68-5.83-10.47-11.8-20.86-17.45-31.43-.76-1.42-.62-3.98.17-5.44,5.54-10.28,11.4-20.39,17.06-30.61,1.49-2.69,3.42-4,6.59-3.93,7.4.15,14.8.09,22.19.03,2.76-.02,3.64-.03,3.64-.03,0,0-.1,7.34-.1,9.97Z"/>
  <path class="cls-2" d="M59.13,113.72c5.94-.54,5.22-.72,7.92-3.61,2.2,3.76,4.98,8.41,7.63,12.2,4.52,6.45,7.79,10.16,16.23,9.72s14.47-.17,20.87-.17c3.13-5.94,5.72-11.49,8.91-16.54,4.58-7.26,6.44-14.04.22-21.51-2.71-3.25-5.59-8.61-7.6-12.3,3.87-.81,5.91-2.04,8.05-3.53.37-.54.73-1.07,1.1-1.61.43,1.07.74,2.21,1.31,3.2,4,7.03,8.05,14.02,12.08,21.03,1.38,2.4,1.44,4.76.02,7.24-5.87,10.28-11.58,20.65-17.6,30.84-.77,1.31-2.97,2.47-4.53,2.5-11.9.21-23.81.19-35.71.02-1.48-.02-3.59-.95-4.31-2.12-4.5-7.38-8.72-14.94-12.96-22.49-.46-.83-1.43-1.98-1.64-2.87Z"/>
  <path class="cls-1" d="M285.32,58.71c0-7.83-.04-15.66.01-23.49.03-4.78,2.81-8.03,7.52-8.25,5.61-.27,11.25-.3,16.84.07,1.37.09,3.39,1.98,3.74,3.38.65,2.66-1.79,2.58-3.63,2.6-3.66.03-7.32-.02-10.98.02-4.03.04-5.86,1.51-5.9,5.58-.14,13.31-.12,26.62,0,39.93.03,3.09,1.54,4.82,5.17,4.8,9.24-.05,9.24.11,9.24-9.33,0-3-.08-6.01.02-9,.08-2.65-.65-4.27-3.73-4.06-1.99.14-4.12.13-4-2.88.11-2.78,1.84-3.44,4.23-3.41,13.86.16,11.13-1.64,11.39,10.89.11,5.22.08,10.44,0,15.66-.08,5.35-2.93,8.16-8.25,8.21-4.97.05-9.93.08-14.9-.02-4.36-.09-6.72-2.48-6.75-6.82-.06-7.96-.02-15.92-.02-23.88Z"/>
  <path class="cls-1" d="M245.5,67.04c0-6.27.05-12.53-.02-18.8-.03-2.89,1.03-4.36,4.14-4.29,5.37.12,10.74,0,16.11.03,6.53.03,8.93,2.42,8.95,8.97.03,10.7-.04,21.41.03,32.11.02,2.9-.58,4.64-4.09,4.67-3.71.03-3.88-2.04-3.86-4.78.06-10.05-.09-20.1.08-30.15.06-3.4-1.04-4.63-4.48-4.56-10.95.22-9.01-.88-9.13,8.78-.11,8.74-.11,17.49.02,26.23.05,3.17-1.05,4.44-4.3,4.46-3.29.03-3.51-1.8-3.49-4.27.06-6.13.02-12.27.02-18.4Z"/>
  <path class="cls-1" d="M168.65,89.77c-2.48-.12-5.07.15-7.39-.51-1.43-.41-2.46-2.24-3.67-3.43,1.32-.7,2.58-1.82,3.96-1.99,2.71-.33,5.48-.14,8.22-.14,2.56,0,3.92-1.31,3.94-3.82.05-5.09.13-10.18-.02-15.26-.1-3.19-1.73-5.09-5.24-4.88-1.69.1-3.41-.12-5.09.04-4.61.44-6.16-1.53-6.45-5.9-.44-6.63-.31-13.31-.07-19.95.15-4.01,2.49-6.25,6.49-6.48,4.17-.24,8.36-.11,12.54,0,.99.03,2.18.38,2.89,1.01.89.8,1.37,2.04,2.02,3.09-1.05.49-2.08,1.32-3.17,1.41-2.73.21-5.49.18-8.23.05-3.12-.15-4.92,1.57-5.04,4.28-.2,4.39.13,8.81.46,13.2.22,3.03,2.28,4.02,5.15,4.19,11.34.64,11.34.69,11.34,12.25,0,4.83.03,9.66-.01,14.49-.06,6.04-2.19,8.13-8.31,8.24-1.44.03-2.88,0-4.31,0v.11Z"/>
  <path class="cls-1" d="M199.09,58.33c0,9.01-.01,18.03,0,27.04,0,2.35-.51,4.05-3.35,4.3-3.11.27-4.09-.96-4.07-4.02.12-14.5.05-29,.05-43.5,0-3.66.1-7.32-.02-10.97-.09-2.78,1.43-3.67,3.84-3.8,2.79-.15,3.57,1.39,3.56,3.92-.06,9.01-.02,18.03-.02,27.04Z"/>
  <path class="cls-1" d="M221.09,44.7c-.57,1.42-.85,2.68-1.52,3.69-2.93,4.44-5.86,8.88-9,13.17-1.64,2.23-1.65,4.12-.26,6.43,3.62,5.99,7.11,12.07,10.63,18.12.43.74.71,1.58,1.06,2.35-4.13,2.09-7.06,1.69-9.19-1.79-3.99-6.51-7.74-13.18-11.37-19.89-.54-1-.4-2.9.22-3.9,3.19-5.19,6.59-10.27,10.02-15.31,2.1-3.08,4.92-4.54,9.42-2.87Z"/>
  <path class="cls-1" d="M234.76,66.81c0,6.27-.07,12.54.03,18.81.05,2.88-1.16,3.89-4,3.88-2.97-.01-3.38-1.6-3.37-4.01.05-12.41.07-24.81,0-37.22-.02-2.89.89-4.33,4.05-4.33,3.42,0,3.31,2.14,3.31,4.46-.01,6.14,0,12.28,0,18.41Z"/>
  <path class="cls-1" d="M240.69,27.15c-2.92.48-3.8-.88-3.8-3.74,0-3.19,1.71-3.58,4.24-3.57,2.52,0,4.52.43,4.3,3.56-.2,2.9-1.78,4.19-4.73,3.74Z"/>
  <path class="cls-2" d="M175.4,127.92l3.06.89c-.68,3-1.86,5.24-3.54,6.71-1.69,1.48-3.74,2.21-6.16,2.21-2.13,0-3.95-.49-5.45-1.48-1.51-.99-2.75-2.58-3.71-4.77-.96-2.19-1.44-4.77-1.44-7.75s.48-5.43,1.44-7.46c.96-2.03,2.27-3.57,3.91-4.61,1.64-1.04,3.48-1.56,5.51-1.56,2.22,0,4.12.66,5.72,1.97,1.59,1.31,2.71,3.24,3.35,5.79l-2.98.82c-1.02-3.7-3.07-5.55-6.14-5.55-1.53,0-2.86.37-3.98,1.12s-2.02,1.91-2.69,3.49c-.67,1.58-1,3.58-1,6,0,3.66.68,6.4,2.03,8.23,1.35,1.83,3.15,2.74,5.39,2.74,1.66,0,3.09-.56,4.29-1.68,1.2-1.12,2.01-2.83,2.42-5.11Z"/>
  <path class="cls-2" d="M190.4,124.28c0-4.55,1.05-8.05,3.15-10.5,2.1-2.45,4.72-3.67,7.85-3.67,2.03,0,3.87.55,5.54,1.64,1.67,1.09,2.99,2.68,3.96,4.76.97,2.08,1.46,4.56,1.46,7.44,0,3.96-.94,7.18-2.83,9.67-2.08,2.74-4.8,4.12-8.16,4.12s-6.11-1.41-8.18-4.22c-1.87-2.55-2.81-5.63-2.81-9.23ZM193.53,124.32c0,3.29.76,5.85,2.28,7.66,1.52,1.82,3.37,2.72,5.55,2.72s4.1-.92,5.61-2.75c1.51-1.84,2.26-4.53,2.26-8.09,0-2.3-.39-4.35-1.17-6.16-.6-1.38-1.5-2.49-2.7-3.33-1.2-.83-2.52-1.25-3.95-1.25-2.29,0-4.18.91-5.66,2.73-1.48,1.82-2.23,4.64-2.23,8.46Z"/>
  <path class="cls-2" d="M228.04,137.28v-26.7h3.04v23.55h11.31v3.15h-14.35Z"/>
  <path class="cls-2" d="M254.22,124.28c0-4.55,1.05-8.05,3.15-10.5,2.1-2.45,4.72-3.67,7.85-3.67,2.03,0,3.87.55,5.54,1.64,1.67,1.09,2.99,2.68,3.96,4.76.97,2.08,1.46,4.56,1.46,7.44,0,3.96-.94,7.18-2.83,9.67-2.08,2.74-4.79,4.12-8.16,4.12s-6.11-1.41-8.18-4.22c-1.87-2.55-2.81-5.63-2.81-9.23ZM257.35,124.32c0,3.29.76,5.85,2.28,7.66,1.52,1.82,3.37,2.72,5.55,2.72s4.1-.92,5.61-2.75c1.51-1.84,2.27-4.53,2.27-8.09,0-2.3-.39-4.35-1.17-6.16-.6-1.38-1.5-2.49-2.7-3.33-1.21-.83-2.52-1.25-3.95-1.25-2.29,0-4.18.91-5.67,2.73-1.48,1.82-2.23,4.64-2.23,8.46Z"/>
  <path class="cls-2" d="M288.95,137.28v-26.7h4.57l5.45,18.9,1.09,3.95c.27-.98.68-2.41,1.22-4.28l5.51-18.58h4.09v26.7h-2.92v-22.33l-6.7,22.33h-2.73l-6.66-22.71v22.71h-2.92Z"/>
  <path class="cls-2" d="M324.66,137.28v-26.7h8.63c1.75,0,3.13.26,4.15.77,1.02.52,1.86,1.32,2.51,2.41.65,1.09.98,2.3.98,3.62,0,1.23-.28,2.33-.84,3.31-.56.98-1.35,1.77-2.37,2.37,1.33.46,2.38,1.25,3.15,2.36s1.15,2.48,1.15,4.11-.35,3.03-1.04,4.25c-.69,1.22-1.62,2.11-2.78,2.66-1.16.55-2.75.83-4.78.83h-8.75ZM327.7,121.8h4.98c1.3,0,2.23-.08,2.78-.25.79-.25,1.4-.68,1.83-1.28.43-.6.64-1.42.64-2.45,0-.96-.2-1.76-.58-2.39-.39-.64-.91-1.08-1.55-1.32-.64-.24-1.8-.36-3.47-.36h-4.61v8.07ZM327.7,134.13h5.72c1.26,0,2.19-.11,2.79-.33.87-.32,1.53-.83,1.98-1.56.45-.72.68-1.63.68-2.72,0-1.01-.22-1.86-.65-2.56-.43-.7-1.02-1.21-1.75-1.53-.73-.32-1.88-.48-3.45-.48h-5.32v9.18Z"/>
  <path class="cls-2" d="M355.75,137.28v-26.7h3.04v26.7h-3.04Z"/>
  <path class="cls-2" d="M370.58,137.28l8.86-26.7h3.25l9.41,26.7h-3.48l-2.67-8.09h-9.66l-2.5,8.09h-3.21ZM377.17,126.32h7.82l-2.39-7.39c-.74-2.27-1.28-4.12-1.62-5.54-.3,1.71-.72,3.41-1.26,5.1l-2.55,7.83Z"/>
</svg>