<svg width="204" height="73" viewBox="0 0 204 73" fill="none" xmlns="http://www.w3.org/2000/svg">
<g clip-path="url(#clip0_16_3)">
<path d="M49.7656 0.036134C52.8561 0.036134 55.9518 -0.0516747 59.0372 0.0981166C59.854 0.139438 60.9882 0.692116 61.3785 1.37392C64.6095 7.02467 67.752 12.7374 70.7801 18.5121C71.1859 19.2869 71.1495 20.6918 70.7332 21.4769C67.6791 27.2517 64.5158 32.9592 61.2744 38.6255C60.905 39.2711 59.854 39.86 59.1152 39.8703C52.8561 39.9684 46.5971 39.9788 40.338 39.8703C39.5471 39.8548 38.4337 39.1988 38.0331 38.5015C34.7709 32.7784 31.6075 26.9986 28.5274 21.1722C28.1684 20.4956 28.1892 19.2611 28.5534 18.5741C31.5607 12.882 34.6356 7.22095 37.8406 1.64768C38.2985 0.857403 39.5575 0.18076 40.4889 0.123943C43.569 -0.0671703 46.6699 0.0516296 49.7604 0.0516296L49.7656 0.036134ZM41.2121 5.29949C40.6866 6.52881 40.3328 7.5257 39.8489 8.45544C38.1736 11.6527 36.3526 14.7777 34.8125 18.0421C34.3599 19.0028 34.2194 20.5575 34.6668 21.4511C36.6647 25.4335 38.8708 29.3126 41.1392 33.1452C41.5555 33.8476 42.6012 34.5398 43.3765 34.5656C47.596 34.7051 51.8208 34.6896 56.0403 34.5811C56.8103 34.5604 57.9081 34.0697 58.2671 33.4396C60.6657 29.2403 62.9237 24.9531 65.1714 20.666C65.3951 20.2373 65.4523 19.4832 65.2338 19.0803C63.0278 14.9429 60.7853 10.8211 58.4492 6.75608C58.085 6.11559 57.2266 5.3873 56.5814 5.3718C51.3941 5.25817 46.2068 5.30982 41.2017 5.30982L41.2121 5.29949Z" fill="#040404"/>
<path d="M203.355 35.2319C203.355 38.2639 203.334 41.3011 203.365 44.3331C203.376 45.5314 203.053 46.2029 201.643 46.2287C200.139 46.2545 199.806 45.5675 199.812 44.2607C199.848 39.1368 199.838 34.0129 199.817 28.8891C199.806 26.0069 199.411 25.635 196.518 25.6298C196.04 25.6298 195.566 25.6298 195.087 25.6298C192.585 25.6556 192.278 25.9294 192.268 28.4397C192.247 33.4293 192.278 38.4189 192.252 43.4085C192.236 45.8775 191.893 46.1925 189.39 46.1977C183.88 46.208 178.371 46.2184 172.861 46.1977C169.916 46.1822 168.969 45.2215 168.964 42.3186C168.953 37.2619 168.948 32.2051 168.964 27.1484C168.974 24.1371 170.441 22.6753 173.428 22.6546C175.467 22.6391 177.507 22.6288 179.552 22.6546C182.127 22.6908 183.319 23.822 183.36 26.3013C183.397 28.6618 183.397 31.0223 183.36 33.3828C183.324 35.6607 182.491 36.6524 180.27 36.8332C178.579 36.9726 176.857 37.0088 175.181 36.797C174.557 36.7195 173.683 35.9034 173.542 35.2888C173.282 34.1421 174.167 33.6359 175.296 33.6566C175.363 33.6566 175.431 33.6617 175.499 33.6514C176.831 33.3983 179.141 33.4138 179.302 32.8353C179.807 31.0481 179.848 28.9459 179.401 27.1277C178.844 24.8602 176.607 25.7744 175.041 25.7486C173.73 25.7279 172.97 26.5389 172.975 27.9645C173.001 32.2774 173.001 36.5956 172.975 40.9085C172.965 42.4942 173.776 43.0314 175.27 43.0211C178.875 42.9849 182.481 42.9643 186.081 43.0366C187.647 43.0676 188.251 42.5407 188.23 40.9343C188.157 35.8776 188.194 30.8208 188.209 25.7641C188.22 22.7734 189.25 22.0813 192.132 23.0059C192.58 23.1505 193.121 22.98 193.62 22.9646C196.05 22.8922 198.511 22.5617 200.904 22.8303C202.6 23.0214 203.339 24.5968 203.334 26.3374C203.329 29.3023 203.334 32.2723 203.334 35.2371C203.334 35.2371 203.334 35.2371 203.339 35.2371L203.355 35.2319Z" fill="#040404"/>
<path d="M26.0457 22.9336C22.5805 22.9336 19.1987 23.0265 15.8272 22.8974C14.0582 22.8302 13.002 23.5379 12.2112 24.9841C10.2445 28.5895 8.17374 32.138 6.3059 35.7898C5.92609 36.5336 5.93129 37.7939 6.3059 38.548C7.85116 41.6161 9.12066 44.5603 10.7492 47.5871C11.3631 48.7338 12.31 49.9786 12.9084 51.3836C17.7314 51.3836 22.7834 51.4817 27.825 51.2958C28.7407 51.2596 29.9062 50.2317 30.4577 49.3536C32.3516 46.3423 34.0217 43.1915 35.7751 40.0872C37.2423 40.955 38.5118 41.7039 40.1143 42.6543C39.0008 44.5861 37.8042 46.74 36.6387 48.8216C33.08 55.18 34.3807 56.2234 26.4619 56.4816C23.0904 56.5849 16.3163 56.4971 12.8459 56.5798C11.2226 56.6211 10.1092 56.0736 9.32878 54.679C6.29549 49.271 3.18937 43.9043 0.249738 38.4447C-0.145681 37.7112 -0.0728408 36.3889 0.338187 35.6348C3.22059 30.325 6.26948 25.1029 9.21431 19.8241C9.98954 18.4346 10.9937 17.758 12.643 17.7942C16.4932 17.8716 20.3433 17.8406 24.1882 17.8097C25.6242 17.7993 26.0821 17.7942 26.0821 17.7942C26.0821 17.7942 26.03 21.5854 26.03 22.9439L26.0457 22.9336Z" fill="#040404"/>
<path d="M30.7647 58.7389C33.8552 58.4599 33.4806 58.367 34.8854 56.8742C36.03 58.8163 37.4764 61.2182 38.8552 63.1758C41.2069 66.5073 42.9082 68.4236 47.2994 68.1964C51.6907 67.9691 54.828 68.1086 58.1579 68.1086C59.7864 65.0404 61.1339 62.1737 62.7936 59.5653C65.1766 55.8153 66.1443 52.3133 62.9081 48.4549C61.4981 46.7762 59.9997 44.0077 58.9539 42.1017C60.9674 41.6833 62.0288 41.048 63.1422 40.2784C63.3347 39.9995 63.5221 39.7257 63.7146 39.4468C63.9383 39.9995 64.0996 40.5883 64.3961 41.0996C66.4773 44.7308 68.5845 48.3413 70.6812 51.9621C71.3992 53.2017 71.4304 54.4207 70.6916 55.7017C67.6375 61.0115 64.6667 66.3679 61.5345 71.6312C61.1339 72.3079 59.9893 72.907 59.1776 72.9225C52.9862 73.031 46.7896 73.0207 40.5981 72.9329C39.8281 72.9225 38.7303 72.4422 38.3557 71.8378C36.0144 68.0259 33.8188 64.121 31.6127 60.2213C31.3734 59.7926 30.8687 59.1986 30.7595 58.7389H30.7647Z" fill="#9D9D9C"/>
<path d="M148.449 30.325C148.449 26.2806 148.428 22.2363 148.454 18.1919C148.47 15.7229 149.916 14.0442 152.367 13.9306C155.285 13.7911 158.22 13.7756 161.128 13.9668C161.841 14.0132 162.892 14.9895 163.074 15.7126C163.412 17.0865 162.143 17.0452 161.185 17.0555C159.281 17.071 157.377 17.0452 155.473 17.0659C153.376 17.0865 152.424 17.8458 152.403 19.9481C152.33 26.823 152.341 33.6979 152.403 40.5728C152.419 42.1688 153.204 43.0624 155.093 43.0521C159.9 43.0263 159.9 43.1089 159.9 38.2329C159.9 36.6834 159.859 35.1286 159.911 33.5842C159.952 32.2155 159.573 31.3787 157.97 31.4872C156.935 31.5595 155.826 31.5543 155.889 29.9996C155.946 28.5637 156.846 28.2227 158.09 28.2382C165.301 28.3209 163.881 27.3911 164.016 33.8632C164.073 36.5594 164.057 39.2556 164.016 41.9519C163.974 44.7153 162.491 46.1667 159.723 46.1925C157.138 46.2184 154.557 46.2339 151.971 46.1822C149.703 46.1357 148.475 44.9012 148.459 42.6595C148.428 38.548 148.449 34.4365 148.449 30.325Z" fill="#040404"/>
<path d="M127.731 34.6276C127.731 31.389 127.757 28.1556 127.72 24.917C127.705 23.4243 128.256 22.665 129.874 22.7011C132.668 22.7631 135.462 22.7011 138.256 22.7166C141.654 22.7321 142.902 23.9666 142.913 27.3498C142.929 32.8766 142.892 38.4085 142.929 43.9353C142.939 45.4332 142.627 46.332 140.801 46.3475C138.87 46.363 138.782 45.2938 138.792 43.8785C138.823 38.6875 138.745 33.4964 138.834 28.3054C138.865 26.5492 138.293 25.9139 136.503 25.95C130.806 26.0637 131.815 25.4955 131.753 30.4851C131.695 34.9995 131.695 39.5191 131.763 44.0335C131.789 45.6708 131.217 46.3268 129.526 46.3372C127.814 46.3526 127.7 45.4074 127.71 44.1316C127.741 40.9653 127.72 37.7939 127.72 34.6276H127.731Z" fill="#040404"/>
<path d="M87.7467 46.3681C86.4564 46.3062 85.1088 46.4456 83.9018 46.1047C83.1577 45.8929 82.6218 44.9477 81.9923 44.333C82.6791 43.9715 83.3346 43.393 84.0526 43.3052C85.4626 43.1347 86.9038 43.2329 88.3294 43.2329C89.6614 43.2329 90.369 42.5562 90.3794 41.2597C90.4054 38.6306 90.447 36.0016 90.369 33.3776C90.3169 31.7299 89.4688 30.7485 87.6426 30.857C86.7633 30.9086 85.8685 30.795 84.9944 30.8777C82.5958 31.1049 81.7894 30.0874 81.6385 27.8302C81.4096 24.4056 81.4772 20.9553 81.6021 17.5256C81.6801 15.4543 82.8976 14.2973 84.9788 14.1785C87.1484 14.0545 89.3284 14.1217 91.5032 14.1785C92.0183 14.194 92.6374 14.3748 93.0068 14.7002C93.4699 15.1134 93.7196 15.7539 94.0578 16.2962C93.5115 16.5493 92.9756 16.9781 92.4085 17.0245C90.9881 17.133 89.5521 17.1175 88.1265 17.0504C86.5032 16.9729 85.5667 17.8613 85.5042 19.2611C85.4002 21.5286 85.5719 23.8116 85.7436 26.0792C85.858 27.6442 86.9298 28.1556 88.4231 28.2434C94.3231 28.574 94.3231 28.5998 94.3231 34.5708C94.3231 37.0656 94.3388 39.5604 94.3179 42.0552C94.2867 45.175 93.1785 46.2545 89.9943 46.3113C89.2451 46.3268 88.4959 46.3113 87.7519 46.3113V46.3681H87.7467Z" fill="#040404"/>
<path d="M103.584 30.1287C103.584 34.7825 103.579 39.4416 103.584 44.0954C103.584 45.3093 103.319 46.1873 101.841 46.3165C100.223 46.4559 99.7133 45.8206 99.7237 44.2401C99.7862 36.7505 99.7497 29.2609 99.7497 21.7714C99.7497 19.8809 99.8018 17.9904 99.7393 16.1051C99.6925 14.6692 100.483 14.2095 101.737 14.1423C103.189 14.0649 103.595 14.8603 103.589 16.1671C103.558 20.821 103.579 25.48 103.579 30.1338L103.584 30.1287Z" fill="#040404"/>
<path d="M115.031 23.0885C114.734 23.822 114.588 24.4728 114.24 24.9945C112.715 27.2878 111.191 29.5812 109.557 31.7971C108.704 32.9489 108.699 33.9251 109.422 35.1183C111.305 38.2122 113.121 41.3527 114.953 44.4777C115.176 44.8599 115.322 45.2938 115.504 45.6915C113.355 46.771 111.831 46.5644 110.723 44.7669C108.647 41.4044 106.696 37.9592 104.807 34.4933C104.526 33.9768 104.599 32.9954 104.921 32.4789C106.581 29.7981 108.35 27.1742 110.135 24.5709C111.227 22.98 112.695 22.2259 115.036 23.0885H115.031Z" fill="#040404"/>
<path d="M122.143 34.5088C122.143 37.7474 122.107 40.986 122.159 44.2246C122.185 45.7122 121.555 46.2339 120.077 46.2287C118.532 46.2235 118.319 45.4023 118.324 44.1575C118.35 37.7474 118.36 31.3426 118.324 24.9325C118.314 23.4398 118.787 22.696 120.431 22.696C122.211 22.696 122.153 23.8013 122.153 24.9997C122.148 28.1711 122.153 31.3426 122.153 34.5088H122.143Z" fill="#040404"/>
<path d="M125.228 14.0235C123.709 14.2715 123.251 13.569 123.251 12.0918C123.251 10.4441 124.141 10.2426 125.457 10.2478C126.768 10.2478 127.809 10.4699 127.694 12.0866C127.59 13.5845 126.768 14.2508 125.233 14.0184L125.228 14.0235Z" fill="#040404"/>
<path d="M91.2586 66.0734L92.8507 66.5331C92.4969 68.0827 91.883 69.2397 91.0089 69.999C90.1296 70.7635 89.063 71.1405 87.8039 71.1405C86.6957 71.1405 85.7488 70.8874 84.9683 70.3761C84.1827 69.8647 83.5376 69.0434 83.0381 67.9122C82.5386 66.7811 82.2889 65.4484 82.2889 63.9092C82.2889 62.37 82.5386 61.1045 83.0381 60.056C83.5376 59.0074 84.2191 58.212 85.0724 57.6748C85.9257 57.1376 86.883 56.869 87.9392 56.869C89.0942 56.869 90.0828 57.2099 90.9153 57.8866C91.7425 58.5632 92.3252 59.5601 92.6582 60.8772L91.1078 61.3008C90.5771 59.3896 89.5105 58.4341 87.9132 58.4341C87.1171 58.4341 86.4252 58.6252 85.8424 59.0126C85.2597 59.4 84.7915 59.9991 84.4429 60.8152C84.0943 61.6313 83.9226 62.6644 83.9226 63.9144C83.9226 65.8048 84.2764 67.2201 84.9788 68.1653C85.6811 69.1106 86.6177 69.5806 87.7831 69.5806C88.6468 69.5806 89.3908 69.2914 90.0151 68.7129C90.6395 68.1344 91.0609 67.2511 91.2742 66.0734H91.2586Z" fill="#9D9D9C"/>
<path d="M99.063 64.1933C99.063 61.8431 99.6093 60.0353 100.702 58.7698C101.795 57.5044 103.158 56.8742 104.786 56.8742C105.842 56.8742 106.8 57.1583 107.669 57.7213C108.537 58.2843 109.224 59.1056 109.729 60.1799C110.234 61.2543 110.489 62.5353 110.489 64.0229C110.489 66.0683 109.999 67.7315 109.016 69.0176C107.934 70.4329 106.519 71.1457 104.771 71.1457C103.022 71.1457 101.592 70.4174 100.515 68.966C99.5417 67.6488 99.0526 66.058 99.0526 64.1985L99.063 64.1933ZM100.691 64.214C100.691 65.9133 101.087 67.2356 101.878 68.1705C102.669 69.1106 103.631 69.5755 104.765 69.5755C105.9 69.5755 106.899 69.1003 107.684 68.155C108.47 67.2046 108.86 65.8152 108.86 63.9764C108.86 62.7884 108.657 61.7295 108.251 60.7946C107.939 60.0818 107.471 59.5085 106.847 59.0746C106.222 58.6459 105.535 58.4289 104.791 58.4289C103.6 58.4289 102.617 58.899 101.847 59.839C101.077 60.7791 100.686 62.2357 100.686 64.2088L100.691 64.214Z" fill="#9D9D9C"/>
<path d="M118.647 70.9081V57.1169H120.228V69.281H126.113V70.9081H118.647Z" fill="#9D9D9C"/>
<path d="M132.268 64.1933C132.268 61.8431 132.814 60.0353 133.907 58.7698C134.999 57.5044 136.362 56.8742 137.991 56.8742C139.047 56.8742 140.004 57.1583 140.873 57.7213C141.742 58.2843 142.429 59.1056 142.934 60.1799C143.438 61.2543 143.693 62.5353 143.693 64.0229C143.693 66.0683 143.204 67.7315 142.221 69.0176C141.139 70.4329 139.729 71.1457 137.975 71.1457C136.222 71.1457 134.796 70.4174 133.719 68.966C132.746 67.6488 132.257 66.058 132.257 64.1985L132.268 64.1933ZM133.896 64.214C133.896 65.9133 134.292 67.2356 135.083 68.1705C135.873 69.1106 136.836 69.5755 137.97 69.5755C139.104 69.5755 140.103 69.1003 140.889 68.155C141.675 67.2046 142.07 65.8152 142.07 63.9764C142.07 62.7884 141.867 61.7295 141.461 60.7946C141.149 60.0818 140.681 59.5085 140.057 59.0746C139.427 58.6459 138.745 58.4289 138.001 58.4289C136.81 58.4289 135.827 58.899 135.051 59.839C134.281 60.7791 133.891 62.2357 133.891 64.2088L133.896 64.214Z" fill="#9D9D9C"/>
<path d="M150.337 70.9081V57.117H152.715L155.551 66.8792L156.118 68.9195C156.258 68.4133 156.472 67.6747 156.753 66.7088L159.619 57.1118H161.747V70.9029H160.228V59.369L156.742 70.9029H155.322L151.857 59.1727V70.9029H150.337V70.9081Z" fill="#9D9D9C"/>
<path d="M168.917 70.9081V57.1169H173.407C174.318 57.1169 175.036 57.2512 175.566 57.5147C176.097 57.7833 176.534 58.1965 176.872 58.7595C177.21 59.3225 177.382 59.9475 177.382 60.6293C177.382 61.2646 177.236 61.8328 176.945 62.339C176.654 62.8452 176.243 63.2532 175.712 63.5631C176.404 63.8007 176.95 64.2088 177.351 64.7821C177.751 65.3555 177.949 66.0631 177.949 66.905C177.949 67.747 177.767 68.4701 177.408 69.1002C177.049 69.7304 176.565 70.1901 175.962 70.4742C175.358 70.7583 174.531 70.9029 173.475 70.9029H168.922L168.917 70.9081ZM170.499 62.9123H173.09C173.766 62.9123 174.25 62.871 174.536 62.7832C174.947 62.6541 175.264 62.4319 175.488 62.122C175.712 61.8121 175.821 61.3886 175.821 60.8566C175.821 60.3607 175.717 59.9475 175.519 59.6221C175.316 59.2915 175.046 59.0642 174.713 58.9403C174.38 58.8163 173.776 58.7543 172.908 58.7543H170.509V62.9226L170.499 62.9123ZM170.499 69.281H173.475C174.13 69.281 174.614 69.2242 174.926 69.1106C175.379 68.9453 175.722 68.6819 175.956 68.3048C176.191 67.9329 176.31 67.4629 176.31 66.8999C176.31 66.3782 176.196 65.9391 175.972 65.5776C175.748 65.216 175.441 64.9526 175.062 64.7873C174.682 64.622 174.083 64.5394 173.267 64.5394H170.499V69.281Z" fill="#9D9D9C"/>
<path d="M185.093 70.9081V57.1169H186.674V70.9081H185.093Z" fill="#9D9D9C"/>
<path d="M192.809 70.9081L197.418 57.1169H199.109L204.005 70.9081H202.195L200.805 66.7294H195.779L194.479 70.9081H192.809ZM196.237 65.247H200.306L199.062 61.4299C198.677 60.2574 198.396 59.3018 198.22 58.5684C198.064 59.4516 197.845 60.3297 197.564 61.2026L196.237 65.247Z" fill="#9D9D9C"/>
</g>
<defs>
<clipPath id="clip0_16_3">
<rect width="204" height="73" fill="white"/>
</clipPath>
</defs>
</svg>
